<?xml version="1.0" encoding="utf-8"?>
<!-- Generator: Adobe Illustrator 24.2.0, SVG Export Plug-In . SVG Version: 6.00 Build 0)  -->
<svg version="1.1" xmlns="http://www.w3.org/2000/svg" xmlns:xlink="http://www.w3.org/1999/xlink" x="0px" y="0px"
	 viewBox="0 0 420 297" enable-background="new 0 0 420 297" xml:space="preserve">
<g id="Logo_7">
	<g id="Background_6_">
	</g>
	<g id="Graphic_Elements_6_">
	</g>
	<g id="_x5B_Your_Text_Here_x5D__6_">
	</g>
</g>
<g id="Logo_6">
	<g id="Background_5_">
	</g>
	<g id="Graphic_Elements_5_">
	</g>
	<g id="_x5B_Your_Text_Here_x5D__5_">
	</g>
</g>
<g id="Logo_5">
	<g id="Background_4_">
	</g>
	<g id="Graphic_Elements_4_">
	</g>
	<g id="_x5B_Your_Text_Here_x5D__4_">
	</g>
</g>
<g id="Logo_4">
	<g id="Background_3_">
		<rect fill="#F2F2F2" width="420" height="297"/>
	</g>
	<g id="Graphic_Elements_3_">
		<g>
			<path fill="none" d="M186,90.8c0.1,0.2,0.3,0.4,0.5,0.7c0-0.2,0-0.5,0-0.7L186,90.8z"/>
			<path fill="none" d="M189,90.8C189,90.8,189,90.8,189,90.8C189,90.8,189,90.8,189,90.8L189,90.8z"/>
			<path fill="none" d="M204.4,181.6c-0.1,0.1,0,0.2-0.1,0.3c0,0.1,0,0.2,0.2,0.2c0.2,0,0.2-0.2,0.2-0.3c0-0.1,0-0.2-0.1-0.2H204.4z
				"/>
			<path fill="none" d="M188.1,82.3c0.2-0.3,0.2-0.6,0.2-0.8H188C187.9,81.7,187.9,82,188.1,82.3z"/>
			<path fill="none" d="M189.9,86.1C189.9,86,189.9,86,189.9,86.1c0-0.1,0-0.2-0.1-0.2c-0.1,0-0.1,0-0.2,0.1c0,0,0,0.1,0,0.1H189.9z
				"/>
			<path fill="none" d="M205,181.9c0,0,0,0,0.1,0.1c0-0.1,0.1-0.1,0.1-0.1c0-0.1,0.1-0.2,0.1-0.4H205
				C204.9,181.7,205,181.8,205,181.9z"/>
			<path fill="none" d="M205,68.3h-0.1c0,0.1,0,0.3,0,0.4c0,0.3,0,0.6,0.1,0.8h0.1V68.3z"/>
			<path fill="none" d="M193.4,81.9c-0.2,0-0.2,0.2-0.2,0.3c0,0,0,0.1,0,0.1h0.4c0,0,0-0.1,0-0.1C193.5,82.1,193.6,81.9,193.4,81.9z
				"/>
			<path fill="none" d="M171.4,100.1c-0.1,0-0.1,0.1-0.1,0.2c0,0.1,0.1,0.2,0.2,0.2c0.1,0,0.2-0.1,0.2-0.2
				C171.6,100.2,171.6,100.1,171.4,100.1z"/>
			<path fill="none" d="M190.7,76.4c-0.1,0-0.2,0.1-0.3,0.2c0,0.1,0.1,0.2,0.2,0.2c0.1,0,0.3-0.1,0.3-0.2
				C190.9,76.5,190.9,76.5,190.7,76.4z"/>
			<path fill="none" d="M190.7,85.6c-0.1,0-0.2,0.1-0.2,0.2c0,0.1,0,0.2,0.1,0.2h0.2c0,0,0-0.1,0-0.1
				C190.8,85.8,190.9,85.7,190.7,85.6z"/>
			<path fill="none" d="M179,108c-0.1,0-0.1,0.1-0.1,0.1c0,0.1,0,0.1,0,0.1c0.2,0,0.2,0,0.2-0.1C179.2,108,179.1,108,179,108z"/>
			<path fill="none" d="M192.7,71.8v0.1c0,0,0,0,0,0c0,0,0.2,0,0.2,0c0.1-0.1,0.1-0.1,0.1-0.1l-0.1,0L192.7,71.8z"/>
			<path fill="none" d="M208.7,182.2c0.1-0.2,0.2-0.4,0-0.6C208.6,181.8,208.6,182,208.7,182.2z"/>
			<path fill="none" d="M188.8,156.9c-0.2,0-0.3,0-0.4,0.1h0.4V156.9z"/>
			<path fill="none" d="M184.6,156.7c0,0.1,0,0.2,0,0.2h0.3c0-0.1,0-0.2,0-0.3c0-0.1,0-0.2,0-0.2h-0.3
				C184.6,156.6,184.6,156.7,184.6,156.7z"/>
			<path fill="none" d="M185.2,85.6c0,0.2,0,0.3,0,0.5h0.6C185.7,85.8,185.5,85.7,185.2,85.6z"/>
			<path fill="none" d="M210.8,148.1c-0.3-0.1-0.6-0.1-0.8-0.1v0.3C210.3,148.4,210.5,148.3,210.8,148.1z"/>
			<path fill="none" d="M185.1,81.1c0,0.4,0,0.8-0.1,1.2h0.3C185.2,81.9,185.2,81.5,185.1,81.1z"/>
			<path fill="none" d="M177.3,76.8c0.1,0,0.2-0.1,0.2-0.3c0-0.1-0.1-0.1-0.2-0.1c-0.1,0-0.2,0-0.2,0.2
				C177.1,76.8,177.1,76.9,177.3,76.8z"/>
			<path fill="none" d="M205.5,181.6c0,0,0,0.1,0,0.1c0,0.1,0,0.4,0.2,0.3c0.2,0,0.2-0.2,0.2-0.4c0,0,0-0.1,0-0.1H205.5z"/>
			<path fill="none" d="M179.2,77.6c-0.9-0.1-1.8-0.1-2.7,0c-0.1,0-0.2,0.1-0.2,0.2c0,0.1,0.1,0.2,0.2,0.2c0.5,0,0.9,0,1.4,0
				c0,0,0,0,0,0c0.4,0,0.8,0,1.2,0c0.1,0,0.3,0,0.3-0.2C179.4,77.7,179.3,77.6,179.2,77.6z"/>
			<path fill="none" d="M180.9,76.5c-0.5-0.1-0.9,0-1.2-0.1c-0.6,0-1,0-1.3,0c-0.2,0-0.3,0.1-0.3,0.3c0,0.2,0.1,0.3,0.3,0.3
				c0.4-0.2,0.8,0.1,1.2,0.1c0.4,0,0.9,0,1.3,0c0.2,0,0.3-0.1,0.3-0.3C181.1,76.6,181,76.5,180.9,76.5z"/>
			<path fill="none" d="M210.3,88.3c-0.1,0-0.2-0.1-0.2,0v1.5c0.1,0.1,0.2,0.1,0.3,0.2c0.1,0,0.1,0.1-0.2,0.2c0,0-0.1,0.1-0.1,0.1
				v0.2c0,0.1,0,0.1,0.1,0.2c0,0.1,0,0.2,0,0.3c0,0.2,0,0.4,0.1,0.5c0.1,0.1,0.3,0.1,0.3-0.1c0-0.3,0.1-0.7-0.1-1
				c-0.1-0.1-0.2-0.2,0-0.3c0.3-0.4,0.1-0.8,0.1-1.2C210.6,88.5,210.4,88.4,210.3,88.3z"/>
			<path fill="none" d="M210.2,139.7c0.1,0,0.2-0.1,0.2-0.2c0-0.1-0.1-0.2-0.2-0.2c-0.1,0-0.1,0-0.2,0v0.3
				C210.1,139.7,210.1,139.7,210.2,139.7z"/>
			<path fill="none" d="M186.1,98.7c-0.1,0-0.2,0.1-0.2,0.3c0,0.1,0,0.1,0.1,0.1h0.2c0,0,0.1-0.1,0.1-0.2
				C186.3,98.8,186.2,98.7,186.1,98.7z"/>
			<path fill="none" d="M210.2,128c-0.3,0.5,0,0.7,0,1.2C210.6,128.7,210.4,128.4,210.2,128z"/>
			<path fill="none" d="M210,110.2v1.2c0,0,0.1-0.1,0.1-0.1c0.1-0.4-0.1-0.8,0.1-1.1C210.1,110.2,210.1,110.2,210,110.2z"/>
			<path fill="none" d="M210.2,137.7c-0.1,0.1-0.1,0.2-0.2,0.3v0.3c0,0.1,0.1,0.2,0.3,0.3C210.2,138.2,210.3,138,210.2,137.7z"/>
			<path fill="none" d="M210.6,179.9c-0.3,0.4-0.1,0.7,0.1,1C210.7,180.6,210.8,180.3,210.6,179.9z"/>
			<path fill="none" d="M192.7,98.1c-0.1-0.3-0.1-0.5,0-0.7h-0.3C192.4,97.6,192.3,97.8,192.7,98.1z"/>
			<path fill="none" d="M188.8,97l-0.3-0.2c-1,0-2.1-0.1-3.1-0.1c-0.7,0-1.4,0-2,0c-1.9,0-3.8,0-5.7,0c-0.1,0-0.3,0-0.3,0.3
				c0.1,0,0.3,0.2,0.4,0.1c0.5-0.1,1,0.1,1.5,0c0.5-0.1,1-0.1,1.5,0c0.5,0.1,1,0.1,1.5,0c0.5-0.1,0.7,0,0.9,0.5
				c0.3-0.2,0.2-0.7,0.7-0.6c0.6,0.1,1.3,0.1,1.9,0c0.3-0.1,0.4,0.1,0.4,0.3c0,0.2-0.2,0.4,0,0.5c0.2,0.1,0.3-0.2,0.4-0.4
				c0-0.1,0-0.2,0-0.2c0.1-0.1,0.2-0.3,0.3-0.2c0.5,0.1,1.1-0.1,1.6,0.2c0.1,0.1,0.2,0.1,0.3,0.1c0.6-0.2,1.2-0.2,1.8-0.2V97H188.8z
				"/>
			<path fill="none" d="M189.1,101.6c0,0.2-0.1,0.4,0.1,0.6h0.1C189.2,101.9,189.5,101.7,189.1,101.6z"/>
			<path fill="none" d="M186,100.5c-0.1,0-0.2,0-0.2,0.1c0,0.1,0.1,0.2,0.2,0.2c0.1,0,0.1-0.1,0.1-0.2
				C186.2,100.5,186.1,100.5,186,100.5z"/>
			<path fill="none" d="M188.2,97.8C188.2,97.8,188.2,97.8,188.2,97.8C188.1,97.8,188.1,97.8,188.2,97.8
				C188.1,97.8,188.1,97.9,188.2,97.8C188.2,97.9,188.2,97.9,188.2,97.8z"/>
			<path fill="none" d="M179.6,102.7c0.2,0,0.2-0.2,0.2-0.3c0-0.1,0-0.2-0.2-0.2c-0.2,0-0.2,0.1-0.2,0.2
				C179.4,102.6,179.4,102.7,179.6,102.7z"/>
			<path fill="none" d="M210.2,140c0,0-0.1-0.1-0.1-0.1c0,0-0.1,0-0.1,0v1.2c0,0.2,0.1,0.5,0.1,0.7
				C210.6,141.2,210.2,140.6,210.2,140z"/>
			<path fill="none" d="M210,112.5c0,0,0.1-0.1,0.1-0.1c0-0.1,0-0.2-0.1-0.2V112.5z"/>
			<path fill="none" d="M210.3,142.5c-0.1,0-0.2,0.1-0.2,0.2c0,0.1,0.1,0.1,0.2,0.1c0.1,0,0.2,0,0.2-0.1
				C210.5,142.6,210.4,142.5,210.3,142.5z"/>
			<path fill="none" d="M179.9,107.5c-0.1,0-0.1-0.1-0.1-0.2c0.2-0.5,0.1-1,0.2-1.6c0-0.2,0-0.5-0.2-0.6c-0.3,0-0.3,0.3-0.2,0.5
				c0,0,0,0,0,0.1c0,0.1,0,0.1,0,0.1c-0.3,0.5-0.2,1.3,0.1,1.7c0.1,0.1,0.2,0.1,0.3,0C180.1,107.5,179.9,107.5,179.9,107.5z"/>
			<path fill="none" d="M210.4,102.8c0,0.1,0.1,0.1,0.2,0.1c0.1,0,0.2-0.1,0.2-0.2c0-0.1-0.1-0.2-0.2-0.3
				C210.4,102.5,210.3,102.7,210.4,102.8z"/>
			<path fill="none" d="M179.8,101.4c0-0.1,0-0.2-0.1-0.3c-0.1-0.1-0.3-0.1-0.4,0c-0.1,0.1-0.2,0.2-0.1,0.3c0.1,0.2,0.1,0.3,0.3,0.4
				C179.6,101.7,179.7,101.6,179.8,101.4z"/>
			<path fill="none" d="M210.1,87.7c0.3,0,0.4-0.1,0.4-0.4c0-0.6-0.1-1.2-0.1-1.7c0.1-0.2,0.1-0.4,0-0.6c0-0.1-0.2-0.1-0.3-0.2
				L210.1,87.7C210,87.7,210.1,87.7,210.1,87.7z"/>
			<path fill="none" d="M181,98.1c0,0,0.1-0.1,0.1-0.1c0-0.1-0.1-0.1-0.1-0.1c-0.1,0-0.1,0.1-0.1,0.2
				C180.8,98.1,180.9,98.1,181,98.1z"/>
			<path fill="none" d="M210.1,115c0-0.1,0-0.1-0.1-0.2L210.1,115C210.1,115.1,210.1,115,210.1,115z"/>
			<path fill="none" d="M210.1,113.9c0-0.1,0-0.2-0.1-0.2L210.1,113.9C210.1,114,210.1,113.9,210.1,113.9z"/>
			<path fill="none" d="M180.5,98.9c0,0.1,0,0.2,0.2,0.2c0.1,0,0.2-0.1,0.3-0.2c0-0.1-0.1-0.2-0.2-0.2
				C180.6,98.7,180.5,98.8,180.5,98.9z"/>
			<path fill="none" d="M214.3,98.8c0-0.2,0-0.5-0.1-0.7c0-0.1-0.1-0.2-0.2-0.1c-0.1,0.1-0.1,0.2,0,0.3c0.2,0.2,0.3,0.3,0.2,0.5
				c0,0.1-0.1,0.1-0.2,0.2c-0.1,0.2,0.1,0.4,0.3,0.4C214.5,99.2,214.4,99,214.3,98.8z"/>
			<path fill="none" d="M214.6,103.6c-0.1,0-0.2,0.1-0.2,0.2c0,0.1,0.1,0.2,0.2,0.2c0.1,0,0.1-0.1,0.1-0.1
				C214.7,103.6,214.7,103.6,214.6,103.6z"/>
			<path fill="none" d="M214.4,114c-0.1,0-0.1,0.1-0.1,0.1c0,0.1,0,0.2,0.1,0.2c0.1,0,0.1,0,0.1-0.1
				C214.5,114.1,214.6,114,214.4,114z"/>
			<path fill="none" d="M213.9,124.5c-0.1,0-0.2,0.1-0.1,0.3c0,0.1,0.1,0.2,0.3,0.2c0.1,0,0.2-0.1,0.2-0.2
				C214.1,124.7,214.1,124.5,213.9,124.5z"/>
			<path fill="none" d="M214.9,92.1c-0.1,0-0.1,0.1-0.1,0.2c0,0.1,0,0.2,0.1,0.5c0.1-0.3,0.2-0.4,0.2-0.4
				C215.1,92.2,215.1,92.1,214.9,92.1z"/>
			<path fill="none" d="M213.9,134.9c-0.2,0-0.2,0.1-0.2,0.2c0,0.1,0,0.3,0.2,0.3c0.1,0,0.3-0.1,0.3-0.2
				C214.1,135,214.1,134.9,213.9,134.9z"/>
			<path fill="none" d="M215.5,146.1c-0.1,0-0.2,0.1-0.3,0.2c-0.1,0.2,0,0.3,0.2,0.4c0.1,0,0.2-0.1,0.2-0.2
				C215.7,146.4,215.7,146.3,215.5,146.1z"/>
			<path fill="none" d="M214.6,102.6c-0.1,0-0.1,0.1-0.1,0.2c0,0.1,0,0.2,0.1,0.1c0.1,0,0.1-0.1,0.1-0.2
				C214.8,102.6,214.7,102.6,214.6,102.6z"/>
			<path fill="none" d="M214,136.8c-0.1,0-0.2,0.1-0.2,0.2c0,0.1,0.1,0.1,0.2,0.1c0.1,0,0.1-0.1,0.1-0.2
				C214.1,136.8,214,136.8,214,136.8z"/>
			<path fill="none" d="M212.9,103c-0.1,0-0.1,0.1-0.1,0.1c0,0.1,0,0.1,0.1,0.1c0.1,0,0.1,0,0.1-0.1C213,103,213,103,212.9,103z"/>
			<path fill="none" d="M211.1,148.2c0.6,0.2,1.2,0.1,1.8,0.1C212.3,148,211.7,148,211.1,148.2z"/>
			<path fill="none" d="M213.5,149.2c-0.1,0-0.1,0.1-0.1,0.1c0,0.1,0.1,0.1,0.1,0.1c0.1,0,0.1-0.1,0.1-0.1
				C213.6,149.2,213.6,149.2,213.5,149.2z"/>
			<path fill="none" d="M213.6,107c0-0.1,0-0.3-0.2-0.3c-0.1,0-0.2,0.1-0.2,0.2c0,0.1,0.1,0.1,0.2,0.2
				C213.6,107.1,213.6,107.1,213.6,107z"/>
			<path fill="none" d="M226.2,87.7c0.1-0.8,0.2-1.7-0.1-2.5C225.9,86,226,86.9,226.2,87.7z"/>
			<path fill="none" d="M212.7,150.2c-0.1,0-0.2,0-0.3,0.1c0,0.1,0,0.3,0.1,0.4c0.1,0.1,0.2,0,0.2-0.1
				C212.8,150.4,212.9,150.3,212.7,150.2z"/>
			<path fill="none" d="M227.6,83.5c-0.1,0.9-0.1,1.7-0.1,2.6c0,0.1,0.1,0.2,0.3,0.1c0-0.9,0-1.9,0-2.9
				C227.7,83.4,227.6,83.5,227.6,83.5z"/>
			<path fill="none" d="M228.3,80.2c0-0.4,0-0.8,0-1.2c-0.1,0.6-0.2,1.2-0.1,1.9C228.3,80.6,228.3,80.4,228.3,80.2z"/>
			<path fill="none" d="M228.4,84.5c-0.1-0.1-0.1-0.2-0.2-0.3C228.2,84.3,228.3,84.4,228.4,84.5z"/>
			<path fill="none" d="M217.8,103c0-0.1-0.1-0.1-0.1-0.1c-0.1,0-0.2,0-0.2,0.1c0,0.3-0.1,0.6-0.1,0.9c0,0.2,0.1,0.3,0.4,0.4
				C217.8,103.8,217.6,103.4,217.8,103z"/>
			<path fill="none" d="M218.7,97.2c0,0,0.1,0.1,0.1,0.1c0.1,0,0.1-0.1,0.1-0.1c0,0-0.1,0-0.1-0.1C218.7,97.1,218.6,97.1,218.7,97.2
				z"/>
			<path fill="none" d="M219.3,103.6c-0.3-0.1-0.2,0.4-0.4,0.6c0,0,0,0.1,0.1,0.2c0.2,0,0.2-0.1,0.2-0.2
				C219.1,104,219.8,103.8,219.3,103.6z"/>
			<path fill="none" d="M224.9,81.3c0,0.8,0.3,1.5,0.3,2.2c0.2-0.6,0.2-1.7,0.1-2C225.2,81.4,225.1,81.3,224.9,81.3z"/>
			<path fill="none" d="M224.1,79.6c-0.1,0-0.2,0.1-0.2,0.2c0.1,0.4,0.1,0.8,0,1.2c0,0.1,0.1,0.3,0.2,0.4c0.2,0.1,0.3-0.1,0.3-0.3
				c0-0.1,0.1-0.3,0.1-0.5c0-0.3-0.1-0.6-0.2-0.9C224.3,79.6,224.2,79.5,224.1,79.6z"/>
			<path fill="none" d="M225.3,77.8c-0.3,0.5-0.3,0.9,0,1.8C225.3,78.9,225.3,78.3,225.3,77.8z"/>
			<path fill="none" d="M211.2,169.4c0-0.1-0.1-0.2-0.2-0.2c-0.1,0-0.2,0.1-0.2,0.3c0,0.1,0.1,0.2,0.2,0.1
				C211.2,169.6,211.2,169.5,211.2,169.4z"/>
			<path fill="none" d="M212.6,113.2c0.1,0,0.2-0.1,0.2-0.2c0-0.1-0.1-0.1-0.2-0.1c-0.1,0-0.2,0-0.2,0.1
				C212.4,113.1,212.5,113.2,212.6,113.2z"/>
			<path fill="none" d="M212.7,112.3c0,0,0-0.1-0.1-0.1c-0.1,0-0.1,0-0.2,0.1c0,0.1,0,0.1,0,0.1
				C212.6,112.4,212.7,112.4,212.7,112.3z"/>
			<path fill="none" d="M212.2,155.9c-0.3-0.1-0.2,0.2-0.2,0.4c0,0.1,0,0.2,0,0.5c0.1-0.2,0.2-0.3,0.2-0.4
				C212.3,156.2,212.4,155.9,212.2,155.9z"/>
			<path fill="none" d="M212.4,140.6c0.1-0.3,0.2-0.5,0-0.7C212.2,140.1,212.3,140.3,212.4,140.6z"/>
			<path fill="none" d="M213.9,105.3c0.1,0,0.2,0,0.2-0.2c0-0.1-0.2-0.2-0.4-0.2c0,0-0.1,0.1,0,0.1
				C213.6,105.2,213.7,105.3,213.9,105.3z"/>
			<path fill="none" d="M212.7,115.3c0.2-0.3,0-0.5-0.1-0.7c0-0.1-0.2,0-0.2,0c-0.1,0.2,0.1,0.4,0.2,0.6
				C212.6,115.2,212.6,115.2,212.7,115.3z"/>
			<path fill="none" d="M212.3,138.7c0.1,0,0.2-0.1,0.2-0.2c0-0.1,0-0.2-0.1-0.2c-0.1,0-0.2,0.1-0.2,0.2
				C212.2,138.6,212.2,138.7,212.3,138.7z"/>
			<path fill="none" d="M217.1,172.8c-0.1,0.6-0.1,0.6,0.2,1C217.4,173,217.4,173,217.1,172.8z"/>
			<path fill="none" d="M214.3,179.3c-0.3,0.6-0.3,2,0.1,3.1C214.5,181.3,214.7,180.3,214.3,179.3z"/>
			<path fill="none" d="M213.7,182c0.3-0.3-0.1-0.6-0.1-0.8C213.6,181.4,213.4,181.7,213.7,182C213.7,182,213.7,182,213.7,182z"/>
			<path fill="none" d="M215.6,135C215.6,135,215.5,134.9,215.6,135c-0.1-0.1-0.2-0.1-0.2,0c0,0,0,0.1,0.1,0.1
				C215.5,135.1,215.6,135.1,215.6,135z"/>
			<path fill="none" d="M213.7,179.4c-0.1,0.5-0.1,0.5,0,0.9C213.8,180,213.7,179.7,213.7,179.4z"/>
			<path fill="none" d="M212.8,100.8c0.1,0,0.2,0,0.2-0.1c0-0.1-0.1-0.2-0.2-0.2c0,0-0.1,0-0.2,0.1
				C212.6,100.7,212.7,100.8,212.8,100.8z"/>
			<path fill="none" d="M211.8,163.4c0,0.1,0.1,0.2,0.2,0.2c0.2,0,0.2-0.1,0.2-0.2c0-0.3-0.2-0.7,0-0.9c0-0.1,0-0.2-0.1-0.3
				c0-0.2,0-0.4-0.3-0.4c-0.3,0-0.3,0.3-0.2,0.5C211.8,162.7,212,163,211.8,163.4z"/>
			<path fill="none" d="M211.8,173.9c0.4-1,0.4-1.2,0-1.6C211.8,172.8,211.7,173.3,211.8,173.9z"/>
			<path fill="none" d="M212,161.1c0-0.1,0-0.1-0.1-0.2c0,0-0.1,0-0.1,0.1c0,0.1,0,0.2,0.1,0.2C211.9,161.2,211.9,161.1,212,161.1z"
				/>
			<path fill="none" d="M212.2,169.3c-0.1,0-0.1,0.1-0.1,0.2c0,0.1,0.1,0.1,0.1,0.2c0.1,0,0.2-0.1,0.2-0.2
				C212.3,169.4,212.3,169.3,212.2,169.3z"/>
			<path fill="none" d="M212,175.3c0.1-0.3,0.1-0.6-0.1-0.9C211.8,174.7,211.7,175,212,175.3z"/>
			<path fill="none" d="M211.5,70.8c0.1,0,0.1-0.1,0.1-0.2c-0.1-0.2-0.2-0.5-0.2-0.8c0-0.1-0.2-0.1-0.3-0.1c-0.1,0-0.2,0.1-0.1,0.2
				c0.1,0.3,0.1,0.7,0.3,1C211.4,70.8,211.5,70.8,211.5,70.8z"/>
			<path fill="none" d="M210.5,181.7c-0.1,0.2-0.1,0.4,0.1,0.6c0.1-0.2,0.2-0.4,0-0.6C210.6,181.6,210.5,181.6,210.5,181.7z"/>
			<path fill="none" d="M211.3,67.8c0-0.1,0.1-0.2,0.1-0.3c0.1-0.1,0.1-0.2,0-0.4c-0.1-0.1-0.1-0.1-0.2,0c-0.1,0.1-0.2,0.2-0.2,0.3
				C211,67.6,211.1,67.7,211.3,67.8z"/>
			<path fill="none" d="M211.1,179.3c-0.1,0-0.1,0-0.2,0.1c0,0.1,0,0.1,0.1,0.2c0.1,0,0.1,0,0.1-0.1
				C211.2,179.4,211.2,179.3,211.1,179.3z"/>
			<path fill="#808793" d="M186.1,100c0-0.1-0.2-0.2-0.3-0.2c-0.1,0-0.2,0.1-0.2,0.2c0,0.2,0.2,0.2,0.3,0.2
				C186,100.2,186.1,100.2,186.1,100z"/>
			<path fill="#808793" d="M200.7,71.4v-0.3c0,0-0.1,0-0.1,0c-0.1,0-0.1,0.1-0.1,0.2C200.4,71.4,200.5,71.5,200.7,71.4
				C200.6,71.4,200.7,71.4,200.7,71.4z"/>
			<path fill="#808793" d="M198.6,100.1h-0.3c0,0,0,0.1,0.1,0.1C198.5,100.3,198.6,100.2,198.6,100.1z"/>
			<path fill="#808793" d="M195.4,100.2c0.1,0,0.1,0,0.2-0.1L195.4,100.2l0.1-0.4c-0.1,0-0.2,0.1-0.2,0.2
				C195.2,100.2,195.3,100.2,195.4,100.2z"/>
			<path fill="#808793" d="M199,97.5c0-0.1,0-0.2,0.1-0.3c0.1-0.1,0.1-0.2-0.1-0.3c-0.1,0-0.3,0-0.3,0.2c0,0.1,0,0.3,0,0.4
				c0,0.1,0,0.1-0.1,0.2h0.4C199,97.6,199,97.5,199,97.5z"/>
			<path fill="#808793" d="M200.9,97.6h0.2c0.1-0.1,0.1-0.2,0-0.4c0-0.1-0.1-0.1-0.3-0.1c0,0,0,0.1-0.1,0.1
				C200.7,97.5,200.8,97.6,200.9,97.6z"/>
			<path fill="#808793" d="M196.9,96.7c-0.2,0-0.3,0.1-0.4,0.3c0,0.2,0.1,0.3,0.2,0.3c0.2,0,0.3-0.2,0.3-0.3
				C197.1,96.8,197,96.8,196.9,96.7z"/>
			<path fill="#808793" d="M186.1,99.1C186.1,99.1,186.2,99.1,186.1,99.1l-0.1,0C186,99.1,186,99.1,186.1,99.1z"/>
			<path fill="#808793" d="M193.6,96.8c-0.1,0-0.3,0-0.2,0.2c0,0.1,0.1,0.1,0.2,0.1c0.1,0,0.3,0,0.2-0.2
				C193.8,96.8,193.7,96.8,193.6,96.8z"/>
			<path fill="#808793" d="M191.5,96.7c-0.9,0.2-1.8,0-2.7,0c-0.1,0-0.2,0-0.4,0l0.3,0.2h1.5v0.1c0.7,0,1.3,0.1,2,0
				c0,0,0.1,0.1,0.1,0.1h0.3c0-0.1,0-0.2,0.1-0.3c0.1-0.2-0.2-0.2-0.3-0.2C192.1,96.9,191.8,96.7,191.5,96.7z"/>
			<path fill="#808793" d="M201.6,101.1c0,0,0.1-0.1,0.1-0.1c0-0.1-0.1-0.1-0.2-0.1c-0.1,0-0.1,0.1-0.1,0.1
				C201.5,101.1,201.5,101.1,201.6,101.1z"/>
			<path fill="#808793" d="M188.4,70.6C188.4,70.6,188.4,70.6,188.4,70.6c0.1,0,0.2,0,0.3,0c0.3,0,0.5,0,0.8,0c0.3,0,0.5,0.1,0.8,0
				c-0.1-0.3-0.1-0.7-0.2-1c0-0.2,0-0.3,0-0.5l-0.3,0.1v0.6l-0.6,0.4l-0.4-0.3l-0.6,0l-0.1-0.6l-0.2,0.5l-0.4-0.5c0,0,0,0,0,0l0,0.7
				l-0.5-0.4c0,0,0,0,0,0l0.4,0.6l-0.7,0.1l0.6,0.3l0,0.2l-0.4,0.4l0.6-0.2l-0.1,0.4h-0.5l-0.1,0.1l-1.7,0l-0.4,0.3l-0.1,0l0-0.5
				h-0.5l-0.2,0.1l0,0.3l-0.1,0l-0.1-0.4h-0.4l-0.2,0.1l-0.2,0l-0.2,0.1l-0.5-0.2h-0.3l1.2,0.8h0.5l0.2-0.1l0.1,0v0.1l0.2,0.1h0.5
				l0.1-0.2l0.6,0v-0.3h0.6l1.8,0.4c0.1-0.4,0.3-0.9,0.3-1.3C188.3,70.8,188.3,70.7,188.4,70.6z"/>
			<path fill="#808793" d="M200.7,100.6h-0.1c-0.1,0-0.1,0.1-0.1,0.2c0.1,0.2,0.1,0.3,0.4,0.3c0.1,0,0.2-0.1,0.2-0.2
				C201,100.7,200.9,100.6,200.7,100.6z"/>
			<path fill="#808793" d="M195.3,102.1h0.2c0.1,0,0.1-0.1,0.1-0.2c0-0.1-0.1-0.1-0.2-0.1C195.3,101.9,195.2,101.9,195.3,102.1
				C195.3,102.1,195.3,102.1,195.3,102.1z"/>
			<path fill="#808793" d="M194.7,96.9c-0.1,0-0.2,0-0.2,0.1c0,0.1,0.1,0.2,0.2,0.2c0.1,0,0.2,0,0.2-0.2
				C194.8,96.9,194.8,96.9,194.7,96.9z"/>
			<path fill="#808793" d="M200.6,102.1h0.4c0,0,0-0.1,0-0.1c0-0.2-0.1-0.3-0.3-0.3c-0.1,0-0.3,0.1-0.3,0.2
				C200.5,102.1,200.5,102.1,200.6,102.1z"/>
			<path fill="#808793" d="M195.5,97.1c0,0.1,0.1,0.2,0.2,0.1c0.1,0,0.2-0.1,0.2-0.3c0,0-0.1-0.1-0.2-0.1
				C195.6,96.9,195.5,96.9,195.5,97.1z"/>
			<path fill="#808793" d="M192.5,101.6c0-0.1,0-0.4-0.2-0.4c-0.2,0-0.3,0.2-0.4,0.3c-0.1,0.1,0,0.3,0,0.4c0,0.1,0.1,0.2,0.1,0.3
				h0.3C192.3,102,192.5,101.8,192.5,101.6z"/>
			<path fill="#808793" d="M185.2,82.6c0.1,0,0.2-0.1,0.1-0.2c0,0,0-0.1,0-0.1H185c0,0,0,0.1,0,0.1C185,82.6,185.1,82.6,185.2,82.6z
				"/>
			<path fill="#808793" d="M178.8,137.5v-1.3h1.7v-0.8h-5.3v0.4h-3v0.4h-1.3v0.4h-0.5v0.4h-0.7l0.1,0.3h-0.3l0,0.2c0,0-2.9,0-3.5,0
				c-0.6,0-0.7,0.6-0.7,0.6h-1.5v0.2h1.5c0,0.7,0.6,0.7,0.6,0.7h3.9v0.5h0.6v0.4h0.6l0,0.4h1.1l0,0.3h3.1v0.2h5v-3.4H178.8z"/>
			<path fill="#808793" d="M192.7,71.4c0,0.2-0.3,0.4,0,0.6v-0.1l0.2,0l0.1,0C193,71.6,192.8,71.5,192.7,71.4c0.3-0.2,0-0.4,0.1-0.6
				c0-0.1,0.2-0.3-0.1-0.3c-0.2,0-0.2,0.3-0.1,0.4C192.7,71,192.4,71.3,192.7,71.4z"/>
			<path fill="#808793" d="M185.4,85.3L185.4,85.3c0.1,0,0.1,0,0.1,0c0.2,0,0.2-0.1,0.2-0.3c0-0.4-0.2-0.8-0.1-1.3
				c0-0.1,0-0.2,0-0.3c0-0.2-0.1-0.4-0.4-0.4c-0.3,0-0.2,0.3-0.2,0.4c0,0.3,0.1,0.7,0.1,1c0,0.2,0,0.4,0.1,0.6
				C185.2,85.2,185.3,85.3,185.4,85.3z"/>
			<polygon fill="#808793" points="202.2,147.7 202.2,147.1 198.7,147.1 198.7,144.4 197.2,144.4 197.2,143.4 195.6,143.4 
				195.6,141.4 192,141.4 192,141.7 183.3,141.7 183.3,143.8 192.6,143.8 192.6,143.9 191.5,144.9 185,144.9 184,144.9 184,145.6 
				183.3,145.6 183.3,147.2 179,147.2 179,148.7 188,148.7 188,150.1 180.4,150.1 180.4,151.9 188.5,151.9 188.5,147.7 			"/>
			<path fill="#808793" d="M199.7,68.5c0.1-0.3,0.2-0.6,0.1-1c-0.2,0.3-0.2,0.7-0.4,0.9c-0.1,0.1-0.2,0.2,0,0.3
				C199.4,68.7,199.6,68.7,199.7,68.5z"/>
			<polygon fill="#808793" points="186.1,114.2 186.1,115.1 187.8,115.1 187.8,115.6 190.5,115.6 190.5,114.2 			"/>
			<path fill="#808793" d="M200.4,69c-0.1,0.2-0.3,0.3,0,0.3C200.7,69.3,200.5,69.1,200.4,69z"/>
			<path fill="#808793" d="M184.6,156.5h0.3c0-0.5,0-1,0-1.5c0.3-0.3,0.3-0.7,0.4-1h-0.4c-0.1,0.2-0.2,0.4-0.2,0.7
				C184.5,155.3,184.6,155.9,184.6,156.5z"/>
			<path fill="#808793" d="M189.7,86.1c0.1,0,0.2,0,0.2-0.1L189.7,86.1C189.7,86.1,189.7,86.1,189.7,86.1z"/>
			<path fill="#808793" d="M190.5,95.7c0-0.1,0.1-0.1,0.1,0c0.4,0.5,0.9,0.1,1.3,0.1c1.3,0,2.6,0.1,3.8,0.1v-0.3h-1.6v-0.8h1.1V93
				c-0.6,0-1.3,0.1-1.9,0.1c-0.2-0.4-0.5-0.7-0.9-0.2c-0.1,0.2-0.2-0.1-0.3-0.1c-0.5-0.2-0.5-0.2-0.6,0.5c-0.1,0-0.1,0-0.2,0
				c0-0.5-0.3-0.5-0.7-0.5c-0.2,0-0.4,0.1-0.6,0.1c-0.1,0-0.1,0-0.2,0c0,0-0.1,0-0.1,0c0-0.1-0.1-0.2-0.2-0.2
				c-0.2,0-0.2,0.2-0.4,0.2c-1,0-2,0-3,0c-0.2,0-0.4,0-0.5,0.1c-0.2,0.2-0.3,0.3-0.5,0c-0.1-0.1-0.2-0.1-0.3-0.2
				c-0.1-0.2-0.2-0.4-0.2-0.6c0-0.1,0-0.1,0-0.1h-19.8l0,1.5l-0.3,0l0-1.1l-0.2-0.3H164l-0.3,0.3l0,1.2l-9.4,0.2l9.4,0.2V95l0.2,0.3
				l0.3,0l0.2-0.3v-1.2h0.3v1.7h23.4l-0.4,0.5c0.5,0,1.1,0,1.6,0C189.7,95.9,190.1,96.1,190.5,95.7z"/>
			<path fill="#808793" d="M182.7,90.2c-0.2-0.3-0.5-0.6-0.8-0.8l0,0c0,0-0.1-0.1-0.1-0.1c-0.1-0.5-0.1-1.1-0.2-1.6
				c-0.1-0.6-0.3-1.1-0.6-1.6h-4.8l-2.4,2.2l2.4,2.6l7.2,0C183,90.6,182.8,90.4,182.7,90.2z"/>
			<path fill="#808793" d="M190.3,90.3c0-0.2-0.1-0.2-0.3-0.2c-0.2,0-0.2,0.1-0.2,0.3c0.1,0.2,0.1,0.5,0.2,0.7
				C190.4,90.8,190.3,90.5,190.3,90.3z"/>
			<path fill="#808793" d="M193.3,82.6c0.2,0,0.2-0.1,0.2-0.2h-0.4C193.2,82.5,193.2,82.6,193.3,82.6z"/>
			<path fill="#808793" d="M192.5,85.6c-0.1,0-0.2,0.1-0.2,0.2c0,0.3,0.1,0.5,0.4,0.5c0.1,0,0.2-0.1,0.3-0.2
				C192.9,85.8,192.7,85.6,192.5,85.6z"/>
			<path fill="#808793" d="M187.6,155c0.3,0.1,0.3,0.5,0.5,0.7c0.1,0.1,0.2,0,0.3,0c0.1,0.1,0.1,0.1,0.2,0c0.6,0,1.1,0.1,1.7,0
				c0.2,0.1,0.5,0.1,0.7,0v-2.4h-1.3v0.4h-0.5v0.2h-1.8c0.1,0.1,0.1,0.3,0.2,0.5C187.5,154.7,187.5,154.8,187.6,155z"/>
			<path fill="#808793" d="M184.6,157.7c0.3-0.2,0.3-0.5,0.3-0.7h-0.3C184.5,157.2,184.5,157.5,184.6,157.7z"/>
			<path fill="#808793" d="M191.3,91.2c0.1-0.3,0.1-0.6,0-0.8C191.2,90.7,191.2,90.9,191.3,91.2z"/>
			<path fill="#808793" d="M186.8,154h-0.2C186.7,154,186.7,154,186.8,154C186.7,154.1,186.8,154,186.8,154z"/>
			<path fill="#808793" d="M189.4,90.6c0-0.2-0.2-0.4-0.5-0.4c0,0.2,0.1,0.4,0.1,0.7l0,0c0,0,0,0.1,0,0.1c0,0.2,0,0.3,0.1,0.5
				c0,0.1,0.1,0.2,0.1,0.3c0.1,0.1,0.2,0.2,0.3,0.1c0.1-0.1,0.1-0.2,0.1-0.3C189.5,91.2,189.4,90.9,189.4,90.6z"/>
			<path fill="#808793" d="M186.4,90.2c0-0.2-0.2-0.2-0.3-0.2c-0.2,0-0.2,0.1-0.2,0.3c0,0.2,0,0.4,0.1,0.5l0.5,0
				C186.4,90.6,186.4,90.4,186.4,90.2z"/>
			<path fill="#808793" d="M190.3,89.5c0.1-0.4-0.1-0.8-0.1-1.2c0-0.1-0.2-0.2-0.3-0.2c-0.2,0-0.2,0.1-0.2,0.3
				c0,0.1,0.1,0.2,0.1,0.3c-0.1,0.3-0.2,0.6,0.2,0.8C190.1,89.7,190.2,89.7,190.3,89.5z"/>
			<path fill="#808793" d="M190.3,91.5c0,0.1,0,0.1,0.1,0.1c0.1,0,0.2,0,0.2-0.1c0-0.1,0-0.1-0.1-0.2
				C190.4,91.4,190.3,91.5,190.3,91.5z"/>
			<path fill="#808793" d="M179,83.6c0.1-0.1,0.1-0.1,0.2-0.1c0.4,0,0.5-0.3,0.5-0.7c0-0.1,0-0.3,0-0.4h-5.3l0,2.9h6
				c-0.1-0.1-0.1-0.2-0.2-0.3C179.9,84.4,179.3,84.2,179,83.6z"/>
			<path fill="#808793" d="M190.7,86.1C190.8,86.1,190.8,86.1,190.7,86.1l-0.1,0C190.6,86.1,190.7,86.1,190.7,86.1z"/>
			<path fill="#808793" d="M185.9,87.1c0-0.3-0.2-0.5-0.1-0.8c0-0.1,0-0.2,0-0.2h-0.6c0,0.4,0.1,0.8,0.1,1.2c0,0.1,0,0.4,0.2,0.3
				C185.8,87.5,186,87.4,185.9,87.1z"/>
			<path fill="#808793" d="M196.1,87.2c0-0.1,0-0.2,0-0.3c0-0.3,0-0.7-0.1-1c-0.1-0.1-0.1-0.2-0.3-0.2c-0.2,0-0.3,0.1-0.2,0.3
				c0.1,0.4,0,0.9,0.1,1.3c0,0.2,0.1,0.5,0.3,0.5C196.2,87.6,196.1,87.4,196.1,87.2z"/>
			<path fill="#808793" d="M195.6,179.7v-2.2h-1.4v2.9h2.3h0.9c0-0.2,0-0.5,0-0.7H195.6z"/>
			<path fill="#808793" d="M199.8,74.6c-0.1,0-0.2,0.1-0.1,0.2c0,0,0.1,0.1,0.2,0.1c0.1,0,0.1-0.1,0.1-0.2
				C199.9,74.6,199.9,74.5,199.8,74.6z"/>
			<path fill="#808793" d="M200.6,73.6C200.6,73.7,200.6,73.7,200.6,73.6l0.1-0.2C200.6,73.5,200.6,73.6,200.6,73.6z"/>
			<path fill="#808793" d="M199.8,73.8c-0.1-0.1-0.2,0-0.2,0.1c0,0.1,0.1,0.1,0.1,0.2c0.1,0,0.2,0,0.2-0.1
				C200,73.9,199.9,73.9,199.8,73.8z"/>
			<path fill="#808793" d="M197.6,82.3c-0.1-0.6-0.1-1.1-0.1-1.7c0-0.2,0-0.3-0.2-0.3c-0.2,0-0.1,0.2-0.1,0.3
				c0.1,0.6,0.1,1.2,0.1,1.8c0,0.2,0.1,0.3,0.3,0.3C197.8,82.7,197.6,82.5,197.6,82.3z"/>
			<path fill="#808793" d="M196.2,89.7c0.1-0.5-0.1-0.8-0.1-1.2c0,0-0.1-0.1-0.2-0.1c-0.1,0-0.2,0.1-0.2,0.1
				C195.9,88.9,195.7,89.4,196.2,89.7z"/>
			<path fill="#808793" d="M197.4,79.9c0.2,0,0.2-0.1,0.2-0.2c0-0.1,0-0.3-0.1-0.3c-0.1,0-0.2,0.1-0.2,0.2
				C197.3,79.7,197.3,79.8,197.4,79.9z"/>
			<path fill="#808793" d="M201.7,179.7c0,0.2,0,0.4,0,0.6c0,0,0,0.1,0,0.1h0.5c0-0.2,0-0.5,0-0.7H201.7z"/>
			<path fill="#808793" d="M186.2,89.4c0-0.1,0-0.2,0-0.3c0-0.2,0.1-0.4,0-0.6c-0.1-0.2-0.2-0.2-0.4-0.2c-0.2,0.1-0.2,0.2-0.1,0.3
				c0.2,0.2,0.2,0.5,0.1,0.7c0,0.2,0,0.3,0.2,0.3C186.2,89.7,186.2,89.5,186.2,89.4z"/>
			<path fill="#808793" d="M188,81.3c0,0.1-0.1,0.1-0.1,0.2h0.3c0-0.4-0.2-0.8-0.2-1.2C187.7,80.7,188.2,81,188,81.3z"/>
			<path fill="#808793" d="M200.6,68.7c0.1-0.1,0.1-0.1,0-0.2c0,0-0.1,0-0.1-0.1c-0.3,0.1-0.1,0.2-0.1,0.4
				C200.5,68.7,200.6,68.7,200.6,68.7z"/>
			<path fill="#808793" d="M200.4,70.2c0,0.1,0.1,0.1,0.2,0.1c0.1,0,0.1-0.1,0.2-0.1c0-0.1-0.1-0.1-0.1-0.1
				C200.5,70.1,200.4,70.1,200.4,70.2z"/>
			<path fill="#808793" d="M199.5,69.8c-0.1,0-0.2,0-0.2,0.1c0,0.1,0,0.2,0.2,0.2c0.1,0,0.2,0,0.2-0.1
				C199.7,69.9,199.6,69.8,199.5,69.8z"/>
			<path fill="#808793" d="M199.9,167.5c0-0.2,0-0.4,0-0.6c0-0.1,0-0.1,0-0.2v-0.1h-1.3v-2.1h-1.6v-4.1h1.6v-1.5h1.1v-1.4
				c-0.1,0-0.1,0-0.2,0c-2.4-0.4-4.7-0.4-7.1-0.5c-1.2,0-2.4,0-3.5-0.1c-0.1,0-0.1,0-0.2,0v0.1h-0.4c-0.4,0.2-0.6,0.5-0.9,0.7
				c-0.2,0.2,0.1,0.5,0.1,0.9c-0.8,0.1-1.6,0.1-2.5,0.2c-0.3,0-0.7,0.1-1,0.2v0.3h3.9v0.7h1.6l-0.2,0.3l0.4,0.3h0.6l0.1,0.3h3.5v0.5
				h-11l-0.2,0.2h-1.2l-0.5,0.4h-2.8l-0.6,0.6h-0.9l-0.1,0.1H176l-0.2,0.2h-0.9l-0.1,0.2h-0.9l-0.1,0.1h-0.6l-0.1,0.1h-0.5l-0.4,0.2
				l-4.1,0h0.1l4,0.1v0.1h0.8l0.8,0.3h0.7l0.4,0.4h0.9v0.2h0.9l0.2,0.2h0.7l0.1,0.1h0.8v0.1h2.7v0.3h0.7v0.4h11.6v0.5h-0.6v0.3h-5.8
				v4.5h0.3v-3.4H199.9z"/>
			<path fill="#808793" d="M199,176.6C199,176.6,199,176.6,199,176.6c-0.2-0.1-0.4-0.1-0.6,0c-0.3,0-0.7,0-1,0c0-0.6,0-1.2,0-1.7
				c0,0,0,0,0,0h-6.3v1.9h4.6v-0.1H199z"/>
			<path fill="#4C5B72" d="M205.9,105c0,0.1,0.1,0.1,0.2,0.1c0-0.1,0.1-0.1,0-0.2c-0.1-0.1,0.1-0.5-0.2-0.4
				C205.7,104.6,205.9,104.8,205.9,105z"/>
			<path fill="#4C5B72" d="M206.1,111.2c0,0.1,0.1,0.2,0.2,0.2c0,0,0.1-0.1,0.1-0.2c0-0.1,0-0.2-0.1-0.2
				C206.2,111,206.2,111.1,206.1,111.2z"/>
			<path fill="#4C5B72" d="M202.6,181.5C202.5,181.6,202.5,181.6,202.6,181.5l0.4,0C202.8,181.5,202.7,181.4,202.6,181.5z"/>
			<path fill="#4C5B72" d="M206.2,100.2c0-0.1,0-0.2-0.1-0.2c-0.1-0.1-0.1,0.1-0.1,0.1c0,0.1,0,0.2,0.1,0.2
				C206.2,100.4,206.2,100.3,206.2,100.2z"/>
			<path fill="#4C5B72" d="M205.3,124.1c0.1,0,0.2,0,0.3-0.1c0.1-0.1,0.1-0.3,0-0.4c-0.1-0.2-0.3-0.3-0.3-0.5c0-0.3,0.4-0.2,0.4-0.5
				c-0.2-0.2-0.5-0.1-0.5,0.2C205.2,123.2,205,123.7,205.3,124.1z"/>
			<path fill="#4C5B72" d="M181,106.9c0.2-0.3,0-0.7,0-1c0-0.2-0.2-0.2-0.3-0.2c-0.2,0-0.2,0.1-0.2,0.3c0,0.2,0,0.4,0,0.8
				c0,0.1,0,0.4,0,0.7c0,0.3,0.2,0.4,0.4,0.3c0.3-0.1,0.2-0.2,0.1-0.4C180.9,107.2,180.9,107,181,106.9z"/>
			<path fill="#4C5B72" d="M182,106.7c0-0.2,0.1-0.5-0.2-0.7c-0.1-0.1-0.2-0.2-0.3-0.1c-0.1,0.1-0.1,0.2-0.1,0.3
				c0.2,0.3,0.1,0.6,0.1,0.9c0,0.5,0.1,0.8,0.4,1.1c0.2-0.2,0.3-0.4,0.2-0.5C181.9,107.3,182,107,182,106.7z"/>
			<path fill="#4C5B72" d="M206.1,106.2c0.3-0.2,0.1-0.4,0-0.6c0-0.1-0.1,0-0.2,0c-0.2,0.2,0,0.3,0.1,0.5
				C206,106.2,206,106.2,206.1,106.2z"/>
			<path fill="#4C5B72" d="M205.7,103.8c0.1,0,0.2,0,0.2-0.1c0-0.1-0.1-0.1-0.1-0.2c-0.1,0-0.2,0-0.2,0.1
				C205.6,103.8,205.7,103.8,205.7,103.8z"/>
			<path fill="#4C5B72" d="M205.9,99.4c0.2,0,0.3-0.1,0.3-0.3c0-0.1,0-0.1-0.1-0.2c-0.2,0-0.3,0.1-0.3,0.3
				C205.8,99.3,205.8,99.4,205.9,99.4z"/>
			<path fill="#4C5B72" d="M204.4,117.1c0,0.2-0.1,0.3,0.1,0.4c0.2,0.1,0.4,0.1,0.6-0.1c0.2-0.2,0.1-0.3,0-0.5
				c-0.1-0.1-0.2-0.2-0.1-0.3c0.2-0.2,0.1-0.4,0.1-0.7c-0.1-0.9-0.2-1.8-0.2-2.7c0-0.2,0-0.4-0.3-0.4c0.2-0.1,0.3-0.3,0.2-0.4
				c-0.1-0.2-0.3-0.1-0.4-0.1c-0.5,0-0.5,0-0.2,0.7c0.1,0,0.3,0.1,0.3,0.1c-0.3,0.2-0.4,0.4-0.2,0.7c-0.3,0.5,0,1.1-0.1,1.7
				C204.2,116,204.5,116.5,204.4,117.1z"/>
			<path fill="#4C5B72" d="M204,86.5c0.1-0.3,0.2-0.6-0.1-0.8C203.9,86,203.6,86.3,204,86.5z"/>
			<path fill="#4C5B72" d="M203,73.5c-0.2,0.1-0.2,0.3-0.3,0.5c0,0.1,0.1,0.1,0.1,0.1c0.2-0.1,0.3-0.3,0.3-0.5
				C203.1,73.6,203.1,73.5,203,73.5z"/>
			<path fill="#4C5B72" d="M204,70.3c0,0,0-0.1-0.1-0.1c-0.1,0-0.1,0-0.2,0.1c0,0.1,0,0.1,0,0.1C203.9,70.4,204,70.4,204,70.3z"/>
			<path fill="#4C5B72" d="M205.7,181.5c-0.1,0-0.2,0-0.2,0.1h0.4C205.9,181.5,205.8,181.5,205.7,181.5z"/>
			<path fill="#4C5B72" d="M205,77.1c-0.1,0-0.2,0.1-0.2,0.2c0,0.1,0.1,0.1,0.2,0.1c0.1,0,0.2-0.1,0.1-0.2
				C205.1,77.1,205,77.1,205,77.1z"/>
			<path fill="#4C5B72" d="M205.4,90.9c-0.1,0-0.2,0.1-0.1,0.1c0,0.1,0.1,0.1,0.2,0.1c0.1,0,0.1-0.1,0.1-0.2
				C205.6,90.9,205.5,90.9,205.4,90.9z"/>
			<path fill="#4C5B72" d="M205.1,180.6c0.2-0.4,0.2-0.4,0-0.8C204.9,180.1,204.9,180.4,205.1,180.6z"/>
			<path fill="#4C5B72" d="M205,181.5C205,181.5,205,181.6,205,181.5l0.2,0.1c0,0,0,0,0-0.1C205.2,181.5,205.1,181.5,205,181.5z"/>
			<path fill="#4C5B72" d="M205.3,74c0.1-0.1,0.1-0.2,0-0.3c-0.3-0.2-0.1-0.6-0.2-0.8c-0.3,0.3-0.3,0.6-0.2,1
				C205,74.1,205.2,74.1,205.3,74z"/>
			<path fill="#4C5B72" d="M204.6,179.1c0,0,0.1-0.1,0.1-0.1c0-0.1-0.1-0.1-0.2-0.1c-0.1,0-0.1,0.1-0.1,0.2
				C204.4,179.1,204.5,179.1,204.6,179.1z"/>
			<path fill="#4C5B72" d="M204.5,181.5c-0.1,0-0.1,0-0.1,0L204.5,181.5C204.6,181.6,204.6,181.5,204.5,181.5z"/>
			<path fill="#4C5B72" d="M204.4,179.6c0,0.4-0.2,0.7,0.1,0.9C204.7,180.3,204.7,180,204.4,179.6z"/>
			<path fill="#4C5B72" d="M204.6,169c-0.2,0.3-0.2,0.5,0,0.8c0,0,0,0,0.1,0c0.2-0.3,0.3-0.5,0.1-0.8C204.8,169,204.6,169,204.6,169
				z"/>
			<path fill="#4C5B72" d="M202.9,165.2c-0.1,0-0.2,0.1-0.2,0.2c0,0.1,0,0.3,0.1,0.3c0.1,0.1,0.2,0,0.2-0.1
				C203,165.5,203,165.3,202.9,165.2z"/>
			<path fill="#4C5B72" d="M203.3,163c0-0.1-0.1-0.2-0.1-0.2c-0.1,0-0.1,0.1-0.2,0.2c0,0.1,0,0.2,0.1,0.2
				C203.2,163.2,203.3,163.1,203.3,163z"/>
			<path fill="#4C5B72" d="M203.3,179.2c-0.2,0-0.3,0.2-0.2,0.3c0.1,0.3,0,0.5,0.1,0.8c0-0.3,0.1-0.5,0.2-0.8
				C203.5,179.4,203.5,179.2,203.3,179.2z"/>
			<path fill="#4C5B72" d="M205.9,70.3c0-1.1-0.1-2.3-0.2-3.4c0-0.4-0.3-0.3-0.6-0.3c-0.2,0-0.4,0.1-0.3,0.4
				c0.1,0.4,0.1,0.8,0.1,1.3h0.1v1.2h-0.1c0,0.4,0.1,0.8,0.1,1.3c0,0.2,0.1,0.3,0.2,0.3c0.5,0.1,0.6,0,0.6-0.5
				C205.9,70.5,205.9,70.4,205.9,70.3z"/>
			<path fill="#4C5B72" d="M209.9,110.3c-0.1,0.3-0.1,0.7-0.2,1c0,0.1,0,0.2,0.2,0.2c0.1,0,0.1,0,0.2-0.1v-1.2
				C210,110.2,209.9,110.2,209.9,110.3z"/>
			<path fill="#4C5B72" d="M209.8,72.7c0.1,0,0.1,0,0.1-0.1c0-0.1-0.1-0.2-0.2-0.2c-0.1,0-0.1,0.1-0.1,0.1
				C209.6,72.7,209.7,72.7,209.8,72.7z"/>
			<path fill="#4C5B72" d="M209.9,140.2c0,0.3,0,0.7,0.1,1V140C210,140,209.9,140.1,209.9,140.2z"/>
			<path fill="#4C5B72" d="M210,114.8C210,114.8,210,114.8,210,114.8c-0.1,0-0.2,0-0.2,0.1c0,0,0,0.1,0.1,0.1c0,0,0.1,0,0.1,0V114.8
				z"/>
			<path fill="#4C5B72" d="M209.9,87.3c0,0.2,0,0.3,0.2,0.4v-2.9c-0.2-0.1-0.5-0.1-0.6,0.1c-0.1,0.3-0.1,0.6,0.4,0.7
				C209.8,86.2,210,86.8,209.9,87.3z"/>
			<path fill="#4C5B72" d="M209.9,88.3c-0.1,0.4,0,0.8,0,1.2c0,0.1,0,0.1,0.1,0.2v-1.5C210,88.2,210,88.3,209.9,88.3z"/>
			<path fill="#4C5B72" d="M210,112.1c-0.1,0-0.2,0-0.2,0.2c0,0.1,0,0.2,0.1,0.3c0.1,0,0.1,0,0.2,0L210,112.1
				C210,112.1,210,112.1,210,112.1z"/>
			<path fill="#4C5B72" d="M207.9,87.1c-0.2,0-0.1,0.2-0.2,0.3c0,0.1,0,0.2,0.2,0.2c0.1,0,0.1-0.1,0.1-0.2
				C208,87.3,208,87.2,207.9,87.1z"/>
			<path fill="#4C5B72" d="M207.2,87.5c0-0.5,0.2-1.1-0.1-1.7C206.5,86.5,207,87,207.2,87.5z"/>
			<path fill="#4C5B72" d="M206,77.1c-0.3,0-0.2,0.2-0.3,0.4c0,0.1,0.1,0.2,0.2,0.2c0.2,0,0.3-0.2,0.4-0.3
				C206.3,77.2,206.2,77.2,206,77.1z"/>
			<path fill="#4C5B72" d="M208.1,71.2c-0.1,0-0.2,0.1-0.2,0.3c0.1,0.1,0,0.4,0.3,0.4c0.2,0,0.2-0.1,0.2-0.3
				C208.5,71.3,208.4,71.2,208.1,71.2z"/>
			<path fill="#4C5B72" d="M210,139.6v-0.3c0,0-0.1,0.1-0.1,0.1C209.9,139.5,210,139.6,210,139.6z"/>
			<path fill="#4C5B72" d="M210,138.3V138C210,138.1,210,138.2,210,138.3z"/>
			<path fill="#4C5B72" d="M189.2,102.2C189.2,102.2,189.2,102.2,189.2,102.2L189.2,102.2C189.1,102.2,189.1,102.2,189.2,102.2z"/>
			<path fill="#4C5B72" d="M210,114v-0.3c0,0,0,0-0.1,0c-0.1,0-0.3,0-0.3,0.2c0,0.1,0,0.1,0.1,0.2C209.9,114,210,114,210,114z"/>
			<path fill="#4C5B72" d="M205.8,132.4c0-0.1,0-0.1-0.1-0.1c-0.1,0-0.1,0-0.2,0.1c0,0.1,0,0.1,0.1,0.2
				C205.7,132.5,205.8,132.4,205.8,132.4z"/>
			<path fill="#4C5B72" d="M205.3,127.4c-0.1,0-0.1,0.1-0.1,0.2c0,0.1,0.1,0.1,0.2,0.1c0.1,0,0.2,0,0.2-0.1
				C205.5,127.4,205.4,127.4,205.3,127.4z"/>
			<path fill="#4C5B72" d="M204.9,137.1c0,0.1,0.1,0.1,0.2,0.1c0.1,0,0.2-0.1,0.1-0.2c0-0.1-0.1-0.1-0.3-0.1
				C204.9,137,204.8,137,204.9,137.1z"/>
			<path fill="#4C5B72" d="M204.9,132.2c-0.1-0.3-0.1-0.7-0.1-1c0-0.2-0.2-0.2-0.4-0.1c-0.2,0.1-0.2,0.2-0.2,0.4
				c0.2,0.2,0,0.5,0.1,0.7c0,0.2,0.2,0.3,0.3,0.2C204.9,132.5,205,132.4,204.9,132.2z"/>
			<path fill="#4C5B72" d="M204.6,120c0.1,0,0.1-0.1,0.1-0.2c-0.1-0.2-0.1-0.4-0.2-0.7c-0.2,0.3-0.2,0.6-0.1,0.8
				C204.4,119.9,204.5,120,204.6,120z"/>
			<path fill="#4C5B72" d="M206.5,112.6c-0.3,0-0.3,0.2-0.3,0.4c0,0.3-0.1,0.6-0.1,0.9c0,0.3,0.3,0.6,0,0.8c0,0.2,0,0.3,0.2,0.3
				c0.2,0,0.2-0.1,0.2-0.3c0.1-0.2-0.4-0.4-0.2-0.6c0.3-0.3,0.2-0.7,0.3-1.1C206.7,112.8,206.8,112.6,206.5,112.6z"/>
			<path fill="#4C5B72" d="M205.7,134.3c-0.1,0.4-0.1,0.7,0,1.1C205.9,134.8,205.9,134.8,205.7,134.3z"/>
			<path fill="#4C5B72" d="M208.1,110.2c-0.2,0.3,0.1,0.6,0.1,0.9c0.2-0.3,0.2-0.5,0.3-0.8c0-0.1,0-0.2-0.1-0.3
				C208.3,110,208.2,110.1,208.1,110.2z"/>
			<path fill="#4C5B72" d="M206,136.9c-0.1,0-0.2,0-0.3,0.1c0,0.1,0.1,0.2,0.2,0.2c0.1,0,0.2,0,0.2-0.1
				C206.2,137,206.1,137,206,136.9z"/>
			<path fill="#4C5B72" d="M203.1,135.2c0-0.3,0.1-0.7-0.1-1c-0.5,0.5-0.5,0.5-0.3,1.3l0,0.1l0,0c0.1,0.1,0.3,0.1,0.4,0
				c0.1-0.1,0-0.2,0-0.2C203.2,135.3,203.1,135.2,203.1,135.2z"/>
			<path fill="#4C5B72" d="M189,103.8c0,0.1,0,0.2,0.1,0.2c0.1,0,0.2-0.1,0.2-0.2c0.1-0.3,0.1-0.6-0.2-0.9
				C189,103.2,189,103.5,189,103.8z"/>
			<path fill="#4C5B72" d="M203.7,100.1c0,0.1,0,0.1,0.1,0.2c0.1,0,0.2-0.1,0.2-0.2c0,0,0-0.1,0-0.1
				C203.7,99.9,203.7,100,203.7,100.1z"/>
			<path fill="#4C5B72" d="M189.1,102.5c0,0,0.1,0,0.1,0c0.1-0.1,0.1-0.2,0-0.3C189.1,102.3,189,102.4,189.1,102.5z"/>
			<path fill="#4C5B72" d="M183,107.1c-0.1,0-0.1,0.1-0.1,0.2c0,0.1,0.1,0.2,0.1,0.1c0.1,0,0.1-0.1,0.1-0.2
				C183.1,107.2,183.1,107.1,183,107.1z"/>
			<path fill="#4C5B72" d="M203.2,133.6c0-0.2,0-0.4,0-0.6c0-0.2-0.1-0.3-0.3-0.3c-0.2,0-0.3,0.1-0.4,0.3c0,0.1,0,0.3,0.1,0.4
				c0,0.1,0,0.1-0.1,0.2c0,0.3,0.1,0.5,0.4,0.5C203.2,134.1,203.1,133.8,203.2,133.6z"/>
			<path fill="#4C5B72" d="M188,108.1c-0.1,0.1,0,0.2,0,0.4c0,0.1,0,0.3,0.2,0.3c0.1,0,0.2,0,0.3-0.1c0.1-0.1,0.1-0.2,0-0.4
				C188.3,108.2,188.2,108.1,188,108.1z"/>
			<path fill="#4C5B72" d="M208.5,130.7c0,0-0.1,0-0.1,0.1c0,0.1,0,0.2,0.1,0.2c0,0,0.1,0,0.1-0.1
				C208.6,130.7,208.6,130.7,208.5,130.7z"/>
			<path fill="#4C5B72" d="M207.3,157.6c-0.1,0-0.3,0.1-0.3,0.2c0,0.1,0.1,0.3,0.2,0.3c0.2,0,0.3-0.1,0.3-0.3
				C207.5,157.7,207.4,157.6,207.3,157.6z"/>
			<path fill="#4C5B72" d="M207.7,151.6c-0.1,0-0.1,0.1-0.1,0.2c0,0.2,0.1,0.3,0.2,0.3c0.1,0,0.2-0.1,0.2-0.2
				C207.9,151.8,207.8,151.6,207.7,151.6z"/>
			<path fill="#4C5B72" d="M208.6,179.5c0.1,0.1,0.2,0.1,0.3,0c0.2-0.2,0-0.4-0.1-0.6C208.6,179.1,208.4,179.3,208.6,179.5z"/>
			<path fill="#4C5B72" d="M207.1,158.6c-0.1,0-0.1,0.1-0.1,0.2c0,0.1,0,0.2,0.1,0.2c0.1,0,0.1-0.1,0.1-0.1
				C207.2,158.7,207.2,158.6,207.1,158.6z"/>
			<path fill="#4C5B72" d="M207,168.7c-0.2,0.4-0.4,0.8-0.2,1.2c-0.3,0.4-0.3,0.8-0.2,1.3c0,0.1,0.2,0.1,0.2,0
				c0.2-0.4,0.3-0.8,0.1-1.3C207.3,169.5,207.1,169.1,207,168.7z"/>
			<path fill="#4C5B72" d="M205.7,172.4c0,0-0.1-0.1-0.1-0.1c0,0-0.1,0-0.1,0c-0.1,0.4-0.4,0.8,0,1.3
				C205.8,173.2,205.6,172.8,205.7,172.4z"/>
			<path fill="#4C5B72" d="M205.5,171.2c0,0.2-0.3,0.4,0,0.6c0,0,0.1,0,0.1,0c0.3-0.1,0.2-0.3,0.2-0.6c0-0.1,0-0.1,0-0.2
				c0.1-0.7,0.3-1.4,0.1-2.2C205.7,169.7,205.3,170.4,205.5,171.2z"/>
			<path fill="#4C5B72" d="M208.1,115.5c0,0.1,0,0.1,0.1,0.2c0.1,0,0.1,0,0.2-0.1c0-0.1,0-0.2-0.1-0.2
				C208.1,115.5,208.1,115.5,208.1,115.5z"/>
			<path fill="#4C5B72" d="M208.1,104.1c0.2,0,0.3-0.2,0.2-0.3c0-0.1-0.1-0.2-0.1-0.3c-0.1,0.1-0.1,0.2-0.2,0.3
				C207.9,103.9,208,104.1,208.1,104.1z"/>
			<path fill="#4C5B72" d="M208,102.7c0-0.1,0-0.2-0.1-0.2c-0.2,0-0.2,0.1-0.2,0.3c0,0.1,0,0.2,0.2,0.2
				C208,102.9,208,102.8,208,102.7z"/>
			<path fill="#4C5B72" d="M208.3,108.7c0.1,0,0.1,0,0.1-0.1c0-0.1,0-0.2-0.1-0.1c0,0-0.1,0.1-0.1,0.1
				C208.2,108.7,208.2,108.7,208.3,108.7z"/>
			<path fill="#4C5B72" d="M208.2,113.8c0-0.1,0-0.2-0.1-0.2c-0.3,0-0.2,0.2-0.2,0.4c0,0.1,0,0.3,0.1,0.2
				C208.2,114.2,208.2,113.9,208.2,113.8z"/>
			<path fill="#4C5B72" d="M208.8,179.8c-0.1,0.1-0.1,0.2-0.2,0.4c-0.1,0.1,0,0.3,0.1,0.3c0.2,0,0.2-0.2,0.2-0.3
				C208.9,180.1,208.9,179.9,208.8,179.8z"/>
			<path fill="#4C5B72" d="M205.1,178.8c-0.1,0-0.1,0.1-0.1,0.2c0,0.1,0,0.2,0.2,0.2c0.1,0,0.1-0.1,0.1-0.2
				C205.2,178.9,205.2,178.8,205.1,178.8z"/>
			<path fill="#4C5B72" d="M208.6,129.1c-0.1-0.3-0.2-0.5-0.1-0.8c0-0.1,0-0.2-0.2-0.2c-0.2,0-0.2,0.1-0.2,0.3c0,0.1,0,0.2,0,0.5
				c0,0.1,0,0.3,0.2,0.5c0.1,0.1,0.2,0.1,0.3,0.1C208.6,129.2,208.6,129.1,208.6,129.1z"/>
			<path fill="#4C5B72" d="M192.1,104.3c-0.2,0-0.3,0.1-0.2,0.3c0.1,0.2,0,0.6,0.3,0.6c0.2,0,0.2-0.2,0.2-0.4
				C192.5,104.5,192.5,104.3,192.1,104.3z"/>
			<path fill="#4C5B72" d="M201,97.8c0,0,0.1-0.1,0.1-0.1h-0.2C200.9,97.7,200.9,97.7,201,97.8z"/>
			<path fill="#4C5B72" d="M198.6,100.1c0-0.1,0.1-0.1,0-0.2c-0.1,0-0.2,0-0.3,0.1c0,0,0,0.1,0,0.1L198.6,100.1
				C198.6,100.1,198.6,100.1,198.6,100.1z"/>
			<path fill="#4C5B72" d="M200.7,99.2c0.1,0,0.3,0,0.4-0.2c0-0.1-0.2-0.2-0.3-0.2c-0.1,0-0.2,0.1-0.3,0.2
				C200.5,99.2,200.6,99.3,200.7,99.2z"/>
			<path fill="#4C5B72" d="M195.4,99.2c0.2,0,0.2-0.1,0.2-0.2c0-0.1,0-0.2-0.1-0.2c-0.2,0-0.2,0.1-0.2,0.2
				C195.3,99.1,195.3,99.2,195.4,99.2z"/>
			<path fill="#4C5B72" d="M196.5,98.7c-0.2,0-0.2,0.2-0.2,0.3c0,0.1,0.1,0.2,0.2,0.2c0.1,0,0.2-0.1,0.2-0.3
				C196.7,98.8,196.7,98.6,196.5,98.7z"/>
			<path fill="#4C5B72" d="M195.5,100.1c0,0,0-0.1,0.1-0.2c0-0.1,0-0.1-0.1-0.2c0,0,0,0,0,0L195.5,100.1L195.5,100.1z"/>
			<path fill="#4C5B72" d="M200.9,106.1c0.2,0,0.3,0,0.3-0.3c0-0.3,0-0.5-0.4-0.6c-0.2,0-0.2,0.2-0.2,0.4
				C200.7,105.7,200.6,106,200.9,106.1z"/>
			<path fill="#4C5B72" d="M201.8,116.5c-0.2-0.8,0-1.6-0.1-2.5c-0.1,0-0.2,0-0.2,0c-0.5,0.8-0.3,1.7-0.3,2.6c0,0.1,0.1,0.2,0.3,0.2
				C201.7,116.8,201.9,116.6,201.8,116.5z"/>
			<path fill="#4C5B72" d="M200.8,106.9c0.2,0,0.3-0.1,0.3-0.3c0-0.1-0.1-0.2-0.3-0.3c-0.1,0-0.3,0.1-0.3,0.3
				C200.6,106.7,200.7,106.8,200.8,106.9z"/>
			<path fill="#4C5B72" d="M198.8,98.1c0.3,0,0.2-0.2,0.2-0.5h-0.4C198.5,97.9,198.4,98.1,198.8,98.1z"/>
			<path fill="#4C5B72" d="M188.1,104c0-0.2-0.1-0.2-0.2-0.2c-0.1,0-0.1,0.1-0.1,0.1c0,0.1,0.1,0.2,0.2,0.2
				C188.1,104.1,188.1,104.1,188.1,104z"/>
			<path fill="#4C5B72" d="M200.5,102.5c-0.1,0.3,0.1,0.5,0,0.8c0,0.1-0.1,0.3,0.1,0.3c0.1,0,0.3,0,0.3-0.2c0-0.3,0.2-0.5,0.2-0.8
				C201,102.4,200.7,102.6,200.5,102.5z"/>
			<path fill="#4C5B72" d="M193.3,105C193.2,105,193.2,105.1,193.3,105c-0.1,0.2,0,0.3,0.1,0.3c0.1,0,0.1-0.1,0.1-0.1
				C193.4,105.1,193.4,105.1,193.3,105z"/>
			<path fill="#4C5B72" d="M202.8,128.6c0-0.2,0-0.3,0-0.5c0-0.2-0.2-0.4-0.4-0.4c-0.2,0-0.3,0.2-0.3,0.5c0,0.1,0.1,0.2,0.1,0.4
				c-0.1,0.3,0.1,0.6,0.4,0.6C202.9,129.2,202.8,128.9,202.8,128.6z"/>
			<path fill="#4C5B72" d="M198.4,104.3c0.6-0.8,0.6-1.2,0.2-1.9c0-0.1-0.1-0.1-0.2-0.1c-0.1,0-0.1,0.1-0.1,0.2
				C198.4,103,198.3,103.6,198.4,104.3z"/>
			<path fill="#4C5B72" d="M202.6,130.8c0.5,0,0.3-0.4,0.3-0.6c0-0.1,0-0.1,0-0.2c0.1-0.3,0-0.5-0.3-0.5c-0.4,0-0.5,0.2-0.4,0.6
				c0,0,0,0.1,0,0.2C202.2,130.5,202.2,130.8,202.6,130.8z"/>
			<path fill="#4C5B72" d="M198.4,105.6c0,0.1,0.1,0.1,0.2,0.1c0.1,0,0.2,0,0.2-0.1c0-0.4,0.1-0.7,0.1-1.1c0-0.2-0.1-0.2-0.3-0.2
				c-0.2,0-0.3,0.1-0.2,0.2c0.1,0.2,0,0.3,0,0.5C198.5,105.2,198.3,105.4,198.4,105.6z"/>
			<path fill="#4C5B72" d="M201.8,117.4c-0.1-0.1-0.2,0-0.3,0.1c-0.2,0.3-0.1,0.5,0.3,0.6C201.9,117.8,202,117.6,201.8,117.4z"/>
			<path fill="#4C5B72" d="M202.6,127.6c0.3-0.1,0.1-0.3,0.1-0.4c0-0.2-0.1-0.4-0.1-0.6c0-0.2-0.1-0.4-0.4-0.4
				c-0.3,0.1-0.3,0.3-0.3,0.5c0.1,0.2,0,0.4,0.1,0.6C202,127.6,202.3,127.6,202.6,127.6z"/>
			<path fill="#4C5B72" d="M202.4,125.7c0.2,0,0.2-0.1,0.2-0.2c0.1-0.8,0.3-1.5,0.1-2.3c0-0.1-0.2-0.2,0-0.3c0.1-0.1,0.3,0,0.2-0.2
				c-0.1-0.1-0.2-0.1-0.3-0.1c-0.3,0-0.3,0.2-0.3,0.4c-0.1,0.9-0.2,1.8-0.4,2.7C202.1,125.8,202.2,125.7,202.4,125.7z"/>
			<path fill="#4C5B72" d="M192.3,104c0.2-0.1,0.2-0.3,0.1-0.5c0.1-0.4,0-0.7-0.2-1.1c0-0.1,0-0.2,0-0.3H192c0,0.2-0.1,0.3-0.1,0.4
				c0,0.1,0,0.2,0,0.3c0,0.3-0.1,0.6,0,0.9C191.9,104.1,192.1,104.1,192.3,104z"/>
			<path fill="#4C5B72" d="M200.7,100.6C200.6,100.6,200.6,100.6,200.7,100.6L200.7,100.6C200.7,100.6,200.7,100.6,200.7,100.6z"/>
			<path fill="#4C5B72" d="M188.8,104.7c-0.1,0.4,0.3,0.7,0.1,1.2c0.5-0.1,0.6-0.3,0.5-0.7c-0.1-0.2-0.1-0.3-0.1-0.5
				c0-0.2,0.1-0.4-0.2-0.4C188.8,104.3,188.8,104.5,188.8,104.7z"/>
			<path fill="#4C5B72" d="M195.4,102.2c0,0,0.1,0,0.1,0h-0.2C195.3,102.2,195.4,102.2,195.4,102.2z"/>
			<path fill="#4C5B72" d="M200.5,130c-0.2,0-0.2,0.1-0.2,0.3c0,0.2,0.1,0.3,0.3,0.3c0.1,0,0.3,0,0.3-0.2
				C200.8,130.2,200.7,130,200.5,130z"/>
			<path fill="#4C5B72" d="M200.6,111.3c0-0.2-0.1-0.2-0.3-0.2c-0.1,0-0.2,0-0.3,0.2c0,0.4-0.1,0.7-0.2,1c0,0.2,0,0.3,0,0.4
				c0,0.1,0.1,0.2,0.2,0.2c0.1,0,0.2-0.1,0.2-0.2c-0.1-0.4,0-0.7,0.2-1C200.7,111.6,200.6,111.4,200.6,111.3z"/>
			<path fill="#4C5B72" d="M199.6,130c-0.2,0-0.2,0.2-0.3,0.3c0,0.1-0.1,0.3,0.1,0.4c0.2,0.1,0.3-0.1,0.3-0.2
				C199.8,130.3,199.8,130.1,199.6,130z"/>
			<path fill="#4C5B72" d="M197.3,124.8c0.1,0,0.3,0,0.3-0.1c0.1-0.4-0.3-0.3-0.4-0.4C197.1,124.5,197,124.7,197.3,124.8z"/>
			<path fill="#4C5B72" d="M197.8,129.5c-0.2,0-0.3,0.1-0.3,0.3c0,0.1,0,0.2-0.1,0.2c0,0.2-0.2,0.6,0.2,0.7c0.5,0,0.2-0.4,0.3-0.6
				c0-0.1,0-0.2,0-0.3C197.9,129.7,197.9,129.5,197.8,129.5z"/>
			<path fill="#4C5B72" d="M200.5,127.1c0-0.1-0.1-0.2-0.2-0.2c-0.1,0-0.2,0-0.2,0.2c0,0.1,0,0.2,0.1,0.2
				C200.4,127.3,200.5,127.2,200.5,127.1z"/>
			<path fill="#4C5B72" d="M197.4,125.5c0-0.1-0.1-0.1-0.2-0.1c-0.1,0-0.2,0-0.2,0.2c0,0.1,0.2,0.1,0.3,0.1
				C197.4,125.7,197.4,125.6,197.4,125.5z"/>
			<path fill="#4C5B72" d="M200.5,129c0.3-0.1,0.3-0.3,0.3-0.5c0-0.2-0.1-0.4-0.4-0.4c-0.2,0-0.1,0.3-0.1,0.4
				C200.3,128.7,200.4,128.8,200.5,129z"/>
			<path fill="#4C5B72" d="M200.2,119.5c0-0.3-0.4-0.3-0.5-0.5c-0.1,0.2,0.1,0.4,0.1,0.6c0,0.2,0.1,0.3,0.3,0.3
				C200.3,119.8,200.3,119.6,200.2,119.5z"/>
			<path fill="#4C5B72" d="M199.7,117.3c-0.3,0.2-0.1,0.5-0.1,0.7c0,0.1,0.1,0.1,0.1,0.2c0,0.1,0,0.1,0,0.2c0,0.1,0,0.2,0.1,0.2
				c0.1,0,0.1-0.1,0.1-0.2c0-0.1,0-0.1-0.1-0.2c0,0,0.1-0.1,0.1-0.1c0.1-0.3,0.1-0.5-0.1-0.7C199.8,117.3,199.7,117.3,199.7,117.3z"
				/>
			<path fill="#4C5B72" d="M200.1,113.3c-0.2,0.3-0.2,0.5,0.1,0.8c0.1-0.3,0.2-0.5,0-0.8C200.2,113.2,200.1,113.2,200.1,113.3z"/>
			<path fill="#4C5B72" d="M195.4,106c0.3-0.5,0-1,0.1-1.5c0-0.1,0-0.1,0-0.2c-0.1-0.4,0.2-0.8,0.1-1.3c-0.3,0-0.4,0.2-0.4,0.4
				c0,0.3,0,0.6,0.1,0.9c-0.1,0.1-0.1,0.2,0,0.3C195.2,105.1,195,105.5,195.4,106z"/>
			<path fill="#4C5B72" d="M188.9,106.2c-0.1,0-0.1,0.2-0.1,0.3c0.2,0.2,0,0.5,0.1,0.8c0,0.2,0,0.4,0.3,0.4c0.2,0,0.3-0.2,0.3-0.4
				c-0.1-0.3,0-0.6-0.3-0.9C189.1,106.3,189.1,106.2,188.9,106.2z"/>
			<path fill="#4C5B72" d="M191.5,106.4c0.1-0.1-0.1-0.2-0.3-0.2c-0.1,0-0.3,0-0.3,0.2c0,0.2,0,0.3,0,0.5c0,0.2,0,0.5,0.2,0.7
				c0.1,0.1,0.2,0.2,0.3,0.2c0.2,0,0.1-0.2,0.2-0.3C191.6,107,191.3,106.7,191.5,106.4z"/>
			<path fill="#4C5B72" d="M202.3,95.9c0.1,0,0.1-0.1,0.1-0.2c0-0.1,0-0.2-0.1-0.2c-0.1,0-0.2,0.1-0.2,0.2
				C202.1,95.8,202.2,95.9,202.3,95.9z"/>
			<path fill="#4C5B72" d="M200.8,102.2c0.1,0,0.1,0,0.2-0.1h-0.4C200.6,102.2,200.7,102.2,200.8,102.2z"/>
			<path fill="#4C5B72" d="M201.6,110.6c0.1-0.1,0.2-0.3,0.3-0.2c0.2,0.1,0.1,0.3,0,0.4c-0.2,0.3,0,0.6,0.2,0.8
				c-0.3,0.3,0,0.5,0,0.8c0,0.1,0.1,0.1,0.1,0c0-0.3,0.4-0.5,0.1-0.8c0.1-0.4,0-0.8,0-1.1c0-0.7,0-0.7-0.6-0.7c-0.2,0-0.3,0-0.5,0.1
				c-0.4-0.1-0.8,0.3-1.3,0.2c-0.9,0-1.8-0.1-2.7,0.1c-0.2,0.2-0.1,0.4,0,0.6c0,0,0,0,0,0c0.1,0.4,0.2,0.8,0.2,1.3
				c0,0.1,0,0.3,0,0.4c0.1,0.6-0.1,1.3,0.3,1.9c0.1,0.1,0.1,0.3-0.1,0.4c-0.5,0.2-0.3,0.2,0,0.3c0.2,0.1,0.4,0,0.6,0.1
				c0.3,0.1,0.4-0.1,0.4-0.3c0-0.5,0.2-1,0.1-1.5c0.2-0.1,0.1-0.4,0.3-0.4c0.1,0.2-0.1,0.5,0.2,0.7c0-0.3,0.1-0.6,0.1-0.8
				c0.1-0.5-0.1-0.7-0.5-0.9c0.6-0.1,0.6-0.1,0.7-0.8c0-0.3,0.2-0.5,0.3-0.8c0.1,0,0.2-0.1,0.2,0c0.4,0.2,0.4,0.2,0.8,0
				c0.1,0,0.1,0,0.2,0C201.2,110.6,201.4,110.8,201.6,110.6z"/>
			<path fill="#4C5B72" d="M195.4,107.4c0.1,0.4,0,0.8,0,1.2c0,0.1-0.1,0.3,0.1,0.3c0.2,0,0.2-0.1,0.2-0.3c0.1-0.6,0-1.1,0.1-1.8
				C195.4,107,195.3,107.1,195.4,107.4z"/>
			<path fill="#4C5B72" d="M201.1,107.8c0.1-0.1,0.1-0.2,0.1-0.3c0-0.1-0.1-0.2-0.2-0.2c-0.1,0-0.2,0.1-0.2,0.2
				C200.9,107.7,201,107.7,201.1,107.8z"/>
			<path fill="#4C5B72" d="M196.5,107.5c0,0,0,0.1-0.1,0.1c-0.1,0.1,0,0.2,0,0.3c0.1,0.1,0.1,0,0.2,0c0.1-0.1,0.1-0.2-0.1-0.2
				C196.6,107.6,196.5,107.6,196.5,107.5z"/>
			<path fill="#4C5B72" d="M196.5,106.4c-0.2,0.2-0.2,0.4-0.2,0.6c0,0.2,0.1,0.3,0.2,0.4c0-0.1,0.1-0.2,0.1-0.3c0-0.2,0.2-0.4,0-0.7
				C196.6,106.4,196.5,106.4,196.5,106.4z"/>
			<path fill="#4C5B72" d="M197,126.2c0,0,0,0.1,0,0.2c0,0.1-0.1,0.3,0.1,0.3c0.1,0,0.2,0,0.2-0.1
				C197.2,126.4,197.3,126.3,197,126.2z"/>
			<path fill="#4C5B72" d="M196.6,103.8c0-0.1,0.1-0.2,0-0.3c-0.1-0.1-0.3-0.1-0.4,0c-0.1,0.1-0.1,0.2-0.1,0.3
				c0.1,0.1,0.1,0.3,0.3,0.5C196.5,104.1,196.5,104,196.6,103.8z"/>
			<path fill="#4C5B72" d="M198.6,99.3c0.1,0,0.3-0.1,0.3-0.2c0-0.2-0.1-0.2-0.2-0.2c-0.2,0-0.2,0.1-0.2,0.2
				C198.4,99.2,198.4,99.3,198.6,99.3z"/>
			<path fill="#4C5B72" d="M198.7,158.9v1.5h-1.6v4.1h1.6v2.1h1.3v0.1c0,0,0,0,0,0c0.2-0.1,0.3-0.2,0.5-0.3c0,0,0,0,0,0
				c0.3-0.2,0.2-0.5,0.2-0.8c0-0.1,0-0.2,0-0.2c0.2-0.8,0.2-1.5,0.2-2.3c0,0,0,0,0,0c0.1-0.2,0-0.4,0.2-0.6c1.1,0.1,2.2,0.1,3.3,0.1
				c0.6,0.2,1.3,0,1.9,0.1c0.1,0,0.3,0,0.3-0.2c0-0.1-0.1-0.2-0.2-0.3c-0.1,0-0.1,0-0.2,0c-0.3,0.1-0.4,0-0.4-0.3
				c0-0.2-0.1-0.4-0.1-0.5c0.1-0.1,0.1-0.3,0-0.4c-0.1-1.1-0.1-2.2,0.1-3.3c0.1-0.3,0.1-0.5-0.3-0.5c-0.4,0-0.9,0-1.3,0
				c-0.5,0-0.5,0-0.5,0.6c0,0.1,0,0.1,0,0.2c-0.1,0-0.2,0-0.3,0c0-0.1,0-0.2-0.1-0.3c0-0.1,0-0.3,0-0.4c0-0.5,0-0.5-0.5-0.2
				c-0.1,0.1-0.2,0.1-0.4,0.1c-0.5,0-1,0-1.5,0c-0.3,0-0.7-0.1-0.9,0.2c-0.1,0.1-0.2,0.1-0.3,0.1v1.4H198.7z"/>
			<path fill="#4C5B72" d="M194.1,94.7v0.8h1.6v0.3c0.1,0,0.3,0,0.4,0c0.3,0,0.6,0,0.6-0.4c0-0.3,0.2-0.4,0.5-0.4
				c2.5,0,4.9,0.1,7.4,0.1c0.3,0,0.6,0,0.9-0.2c0.2-0.2,0.5-0.1,0.8-0.1c0.7,0,1.4,0,2.1,0c0.6-0.1,0.8-0.2,0.8-0.8
				c0-0.3,0.1-0.6,0.1-0.9c0-0.3,0-0.6,0.1-1c-4.7,0.2-9.4,0.5-14.1,0.8v1.8H194.1z"/>
			<path fill="#4C5B72" d="M191,155.8c0.1,0,0.2,0,0.3-0.1c2,0,4,0.1,5.9,0c0.1,0.1,0.1,0.2,0.3,0.2c1.6,0.1,3.1,0.2,4.7,0.1
				c0.1,0,0.1,0,0.2,0c0.3,0,0.8-0.1,0.5,0.5c0,0.1,0.1,0.3,0.2,0.3c0.1,0,0.3-0.1,0.2-0.3c-0.1-0.4,0-0.7,0.1-1.1
				c0-0.2,0.2-0.2,0.3-0.2c0,0.3-0.2,0.5,0,0.8c0.6,0.2,1.2,0.1,1.9,0.2c0.2,0,0.3-0.1,0.3-0.4c-0.1-0.3-0.2-0.6-0.1-0.9
				c0.1-0.4-0.1-0.7-0.3-0.9c-0.5-0.4-0.8-1-1.2-1.4c-0.7-0.9-0.9-1.9-0.8-3c0.1-0.4-0.1-0.7-0.2-1c-0.1-0.1-0.2-0.2-0.3-0.1
				c-0.1,0-0.1,0.1-0.2,0.2c0,0.3,0,0.7,0,1.2c-0.3-0.5-0.4-1-0.3-1.4c0-0.4,0.2-0.6,0.6-0.6c0.2,0,0.4,0,0.6,0
				c0.1,0,0.2,0.1,0.3,0.1c0.5,0,0.9,0.1,1.3,0.2c0.4,0.2,0.9-0.2,1.1,0.3c0,0,0.1,0,0.2,0c1-0.5,2.1-0.3,3.1-0.2
				c0.1,0,0.3,0,0.4,0.1V148c-0.1,0-0.3,0-0.4,0c-0.6,0-1.1,0.2-1.7-0.2c0.2-0.3-0.1-0.5-0.2-0.7c-0.3-0.7-0.3-0.7-1-0.7
				c-0.3,0-0.6,0-0.8-0.1c0.2-0.5,0.3-1.2,0.1-1.4c-0.2-0.2-0.3-0.1,0-0.3c0.2-0.2-0.1-0.2-0.2-0.2c0,0,0-0.1,0-0.1
				c0.2,0,0.5,0,0.7,0c0.8,0,0.8,0,0.7-0.8c0-0.1,0-0.1,0-0.2c0-0.1,0.1-0.3-0.1-0.3l0,0c0-0.5,0-1.1-0.1-1.6c0.1-0.4,0-1,0.3-1.3
				c0.4-0.5,0.3-0.9,0.2-1.4c0-0.3,0.2-0.7-0.1-1c-1.5,0-3-0.1-4.5-0.1c-0.2-0.3,0.1-0.3,0.3-0.4c0.2-0.1,0.3-0.2,0.1-0.3
				c-0.3-0.2-0.4-0.3-0.3-0.7c0.1-0.1-0.1-0.2-0.2-0.3c-0.2,0-0.2,0.1-0.2,0.3c0.1,0.4,0.2,0.8,0.2,1.2c-0.2,0.2-0.5,0-0.7,0.2
				c-0.3-0.1-0.6-0.1-0.9,0c-0.4-0.2-0.9-0.1-1.3-0.1c-0.4,0-0.8,0-1.3,0c-0.7-0.1-1.4-0.1-2.1,0c-1.6,0-3.1-0.1-4.7-0.1
				c-0.2-0.1-0.3-0.1-0.5,0c-0.2,0-0.3,0-0.5,0c-0.2-0.1-0.3-0.1-0.5,0c-0.5-0.1-1-0.1-1.4,0c-0.6-0.1-1.3-0.1-1.9,0
				c-0.4-0.1-0.7-0.1-1.1,0c-0.5-0.1-1-0.1-1.5-0.1c-0.2,0-0.4,0-0.4-0.2c0-0.5-0.4-1-0.2-1.6c0.1-0.2,0.1-0.5-0.3-0.5
				c0-0.1,0-0.1,0-0.2c0-0.1,0-0.2,0-0.3c0-0.1,0-0.2,0-0.3c0.1-0.8-0.2-1.6,0.2-2.4c0.2-0.2,0.3-0.6,0.2-0.7
				c-0.4-0.3-0.1-0.4,0-0.6c0.3-0.4,0.2-0.7-0.3-1c-0.2-0.1-0.4-0.2-0.6-0.2c-0.1-0.1-0.1-0.1-0.2-0.2c0-0.1,0.1-0.3,0.1-0.4
				c0-0.1,0-0.1,0-0.2c0-0.1,0-0.3,0.1-0.3c0.2,0,0.2,0.2,0.2,0.3c0,0,0,0.1,0,0.1c0,0.2,0,0.4,0.3,0.4c0.2,0,0.5,0,0.7-0.1
				c0.1,0,0.2-0.1,0.2-0.2c0.5-0.1,1,0,1.4,0c0.1,0.1,0.2,0.1,0.3,0c0.2,0,0.4,0,0.5-0.2c0,0,0.1,0,0.1,0c0,0,0,0.1,0,0.1
				c0,0.1,0,0.2,0.1,0.1c0.2,0,0.4,0,0.6,0c0.2,0.1,0.3,0.2,0.5,0.3c0.1,0.2,0.3,0.3,0.3,0.5c-0.2,0.7,0.3,1.4,0.1,2.1
				c-0.1,0.3,0.1,0.4,0.4,0.4c0.3,0,0.5-0.1,0.5-0.4c0-0.2,0-0.4,0-0.6c-0.1-1-0.2-2-0.3-3c0-0.2,0.1-0.4,0.1-0.6
				c0-0.3,0.1-0.7-0.3-0.9c-0.1-0.2-0.3-0.3-0.6-0.3c-0.2,0-0.3,0-0.5-0.1c0.1-0.1,0.1-0.2,0.2-0.3c0-0.1,0-0.1,0-0.2
				c0-0.1,0-0.2,0-0.3l0-0.1c0.1-0.1,0.3-0.2,0-0.3c-0.1,0-0.1-0.1-0.2-0.1c0-0.1,0-0.1,0-0.2c0-0.2,0.1-0.5-0.1-0.7
				c0,0,0-0.1,0-0.1c0,0-0.1,0-0.1,0c-0.2,0-0.3,0-0.5,0c0-0.1,0-0.2,0-0.2c0-0.1,0.1-0.3,0-0.4c-0.3-0.2-0.1-0.5-0.2-0.7
				c0.1-0.5-0.2-1-0.1-1.6c0.1-0.3,0.1-0.6,0.2-0.9c0.1,0,0.1-0.1,0.2-0.1c1.8,0,3.7,0.2,5.5,0.1c0.5,0.1,1.1,0,1.6,0
				c0.4,0,0.3-0.2,0.2-0.5c-0.1-0.7,0.3-1.3,0.2-2c-0.3-0.1-0.6-0.1-1-0.1c-0.7-0.1-0.7-0.1-0.6-0.7c0-0.1,0-0.1,0-0.1
				c0.1,0,0.1-0.1,0.1-0.2c0.1,0,0.2,0,0.3-0.1c0.3,0.2,0.7,0.1,1,0.1c0.3,0,0.4-0.1,0.5-0.4c0-0.3,0-0.7,0.3-1c0.1,0,0.3,0,0.4,0.1
				c0.1,0.1,0.3,0.1,0.3-0.1c0.1-0.9,0.4-1.7,0.4-2.6c0.3-0.7,0.2-1.4,0.4-2.2c0.1-0.3-0.1-0.4-0.3-0.4c-0.7,0-1.4,0-2.1,0
				c0,0-0.1,0-0.1,0c-0.5-0.2-1.1-0.2-1.6-0.1c-0.6,0-1.2,0-1.8,0c-0.1-0.1-0.1-0.1-0.2,0c-2.4,0-4.7,0-7.1,0
				c-0.9-0.2-1.8-0.2-2.7,0c-0.2,0-0.3,0-0.5,0c-0.7-0.2-1.4-0.1-2.1-0.1c-0.4,0-0.8,0-1.2-0.3c-0.1,0-0.1-0.1-0.1-0.1c0,0,0,0,0,0
				h-2.2v2.4h-1.2v1.7h1.5v0.8h10.9h4.4v1.4v0h-6v0.6h-4.2l-0.5,0.3h-7.6v0.8h-3.6v2.8h3.1v0.7h1.4v0.6h8.2v0.9h-3.7v6.8h4.8v1.7
				h-0.9v1.2h1.4v2.3h-2.3v1.1v0.8h-1.7v1.3h1.3v3.4v0.5H192h3.6v2h1.6v1h1.5v2.7h3.5v0.6h-13.7v4.1v1.5h1.2h1.3V155.8z"/>
			<path fill="#4C5B72" d="M202.2,171.3c-0.1,0-0.2,0.1-0.2,0.2c0,0.1,0,0.2,0.1,0.3c0.1,0,0.2-0.1,0.3-0.2
				C202.3,171.5,202.3,171.4,202.2,171.3z"/>
			<path fill="#4C5B72" d="M197.9,84.1c0-0.3,0.2-0.8-0.5-1.1c0.4,0.8,0,1.5,0.4,2.1C198,84.9,197.9,84.5,197.9,84.1z"/>
			<path fill="#4C5B72" d="M199.9,171.2c-0.2,0-0.4,0.1-0.4,0.3c-0.1,0.3,0,0.7,0.3,0.9c0.5-0.1,0.3-0.5,0.4-0.8
				C200.2,171.5,200.1,171.2,199.9,171.2z"/>
			<path fill="#4C5B72" d="M197.8,85.7c-0.2,0-0.2,0.1-0.2,0.2c0,0.2-0.1,0.4,0.1,0.4c0.2,0,0.3-0.1,0.3-0.3
				C198,85.9,198,85.8,197.8,85.7z"/>
			<path fill="#4C5B72" d="M202.6,167.7c0.2-0.4,0.3-0.8,0.1-1.3C202.5,166.8,202.5,167.2,202.6,167.7z"/>
			<path fill="#4C5B72" d="M202.1,178.8c-0.2,0.1-0.3,0.2-0.3,0.4c0,0.2,0,0.3,0,0.5h0.5C202.2,179.4,202.2,179.1,202.1,178.8z"/>
			<path fill="#4C5B72" d="M200.7,73.4C200.7,73.4,200.7,73.4,200.7,73.4l-0.1,0.3c0,0,0.1,0,0.1,0c0.1,0,0.1-0.1,0.1-0.2
				C200.9,73.4,200.8,73.4,200.7,73.4z"/>
			<path fill="#4C5B72" d="M191.5,133.2c0,0-0.1,0-0.1,0.1c0,0.1,0,0.2,0.2,0.2c0.1,0,0.1,0,0.2-0.1
				C191.7,133.3,191.6,133.2,191.5,133.2z"/>
			<path fill="#4C5B72" d="M197.4,179.7c0-0.6,0-1.2,0-1.8c0.3,0.1,0.5,0.1,0.7,0.1c-0.1,0.3,0.3,0.8-0.2,1c0,0,0,0.1,0.1,0.2
				c0.4,0.2,0.8,0.3,1.2,0.3c0.2,0,0.3-0.3,0.2-0.3c-0.5-0.2-0.1-0.5-0.1-0.8c0-0.4,0.1-0.8,0.1-1.1c0.1-0.5-0.1-0.6-0.4-0.8h-3.4
				v0.1v0.8v2.2H197.4z"/>
			<path fill="#4C5B72" d="M197.4,174.4c0.1-0.5,0.2-0.5-0.4-0.5c0,0-0.1,0-0.1,0c-0.1-0.1-0.1-0.2-0.1-0.4c0-0.3,0.3-0.8,0-1
				c-0.3-0.2-0.8-0.3-1.3-0.3c-0.4,0-0.9,0-1.3-0.1c0.4,0,0.8,0,1.2,0c0.5,0,0.9-0.2,1.4-0.1c0.2,0,0.2-0.2,0.3-0.3
				c0-0.3,0-0.5,0.1-0.8c0-0.1,0-0.3,0.2-0.3c0.4,0.1,0.4-0.4,0.6-0.5c0.4-0.2,0.4-0.6,0.5-1c0.2,0.2,0.1,0.4,0.2,0.6
				c0.1,0.1,0.1,0.2,0.3,0.1c0.3-0.3,0.2-0.6,0.1-0.9c0,0,0,0,0,0c0-0.1,0.1-0.2,0.1-0.2c0.2,0,0.3,0.1,0.5,0
				c0.2-0.4,0.3-0.8,0.3-1.2h-12.5v3.4v3.9h3.7h6.3C197.4,174.7,197.4,174.6,197.4,174.4z"/>
			<path fill="#4C5B72" d="M200.7,71.3c0-0.1,0-0.1-0.1-0.2v0.3C200.7,71.4,200.7,71.3,200.7,71.3z"/>
			<path fill="#4C5B72" d="M192.2,124.5c0,0-0.1,0.1,0,0.1c0.1,0.2,0.3,0.1,0.5,0c0,0,0,0,0.1-0.1
				C192.6,124.5,192.4,124.4,192.2,124.5z"/>
			<path fill="#4C5B72" d="M202.3,115.8c0.1,0.1,0.1,0.2,0.2,0.1c0.1,0,0.1-0.1,0.1-0.2c0-0.4,0-0.9-0.2-1.3
				c-0.1,0.3-0.1,0.6-0.2,0.9C202.1,115.5,202.2,115.7,202.3,115.8z"/>
			<path fill="#4C5B72" d="M196.1,90.1c-0.2,0-0.2,0.2-0.2,0.3c0,0.4,0.1,0.8,0.2,1.1c0,0.1,0.2,0.1,0.3,0.1c0.1,0,0.2-0.1,0.1-0.2
				c0-0.3-0.1-0.7-0.2-1C196.4,90.2,196.3,90.1,196.1,90.1z"/>
			<path fill="#4C5B72" d="M200.7,104.6c0.3,0,0.4-0.2,0.3-0.5c0-0.2,0.1-0.5-0.3-0.4c-0.3,0-0.2,0.3-0.2,0.5
				C200.6,104.3,200.5,104.6,200.7,104.6z"/>
			<path fill="#4C5B72" d="M203.2,132.2c0.1-0.1-0.2-1.1-0.3-1.1c-0.2-0.1-0.4,0-0.5,0.2c-0.1,0.1,0,0.3,0,0.4c0,0.1,0,0.2,0,0.4
				c0,0.2,0.2,0.4,0.4,0.4C203,132.5,203.1,132.3,203.2,132.2z"/>
			<path fill="#152428" d="M237.6,120.9c0.9-0.8,2.1-1.4,3-2.2c1.5-1.4,1.5-2.8,0.1-4.2c-1.2-1.2-2.5-2.3-3.4-3.7
				c-2.5-3.3-4.1-6.9-3.8-11.2c0.3-5,0.4-9.9-1.9-14.6c-0.2-0.3-0.2-0.8-0.1-1.1c1.2-5.9-1.1-10.1-5.7-13.3c0,0.3,0,0.6-0.1,0.9
				c-0.2-0.4-0.2-0.7-0.1-1.1c-0.1-0.1-0.2-0.1-0.3-0.2c-7.9-5-16.2-6.5-24.9-5.2c0,0.4-0.2,0.5-0.1,0.9c-0.3-0.4-0.3-0.4,0.1-0.9
				c-2,0.3-4,0.7-6.1,1.3c-1.2,0.4-2.4,0.8-3.6,1.4c0,0,0,0,0,0c-0.1,0.4-0.2,0.8-0.2,1.3c0,0.2,0,0.3,0,0.5c0.1,0.3,0.1,0.7,0.2,1
				c-0.3,0.1-0.5,0.1-0.8,0c-0.3,0-0.5,0-0.8,0c-0.1,0-0.2,0-0.3,0c0,0,0,0,0,0c0,0.1-0.1,0.2-0.1,0.3c0,0.4-0.2,0.9-0.3,1.3
				c-0.1,0.2-0.1,0.5,0,0.8c0.1,0.2,0.2,0.4,0.1,0.6c0.1,0.2,0.1,0.3,0.1,0.5c0.1,0.2,0.1,0.5,0.1,0.8c0,0.3,0,0.5-0.4,0.5
				c-1-0.1-2.1,0.1-3.1-0.1c-0.5-0.1-1,0-1.5,0.1c-0.4,0-0.6,0-0.7-0.4c-0.1,0-0.2,0-0.3,0c-0.1,0.4-0.1,0.8-0.7,0.4
				c-0.1-0.1-0.2,0-0.3,0c-0.2,0.2-0.5,0.1-0.7,0c-0.2-0.1-0.3-0.1-0.5-0.1c-0.4,0.1-0.5-0.1-0.5-0.4c-0.1,0-0.2,0-0.3,0
				c-0.3,0.4-0.4,0.4-0.6,0c0,0-0.1-0.1-0.1-0.1c-0.1,0-0.1,0.1-0.2,0.1c-0.3,0.4-0.5,0.4-0.8,0c-1-0.1-2-0.1-3,0
				c0.1,0.8,0.5,1.5,0.8,2.3c0.1,0,0.1,0.1,0,0.1l0,0.1c-0.1,0.2-0.2,0.1-0.3,0.1l0,0l0,0c-0.6,0-1.1,0-1.7,0.1c0,0.1,0,0.1,0,0.2
				c0.8,0,1.5,0,2.3,0c0.2,0,0.4,0,0.4,0.1c0.2,0.5,0.6,0.5,1,0.5c0.8,0,1.5,0.1,2.3,0.1c0.2,0,0.5,0,0.4,0.3c0,0.2-0.2,0.5-0.4,0.5
				c-0.5,0-1.1,0-1.6,0c-0.1,0-0.2-0.1-0.3,0c0,0.3,0.2,0.2,0.3,0.2c0.2,0,0.5,0,0.7,0c1.1,0,1.2,0.1,1,1.2c0.3,0.2,0.2,0.5,0.2,0.8
				c0.1,0.3,0.1,0.7,0.2,1c0,0.1,0,0.3,0,0.4c0,0.4-0.1,0.6-0.5,0.7c-0.1,0-0.1,0.1-0.2,0.1c0.3,0.6,0.9,0.8,1.2,1.4
				c0.1,0.1,0.1,0.2,0.2,0.3c0.1,0.2,0.2,0.3,0.4,0.5c0.1,0.1,0.1,0.2,0.2,0.3c0.3,0.5,0.5,1,0.6,1.6c0.1,0.5,0.1,1.1,0.2,1.6
				c0,0,0.1,0.1,0.1,0.1l0,0c0.3,0.2,0.5,0.4,0.8,0.8c0.1,0.2,0.3,0.4,0.6,0.6c0.2,0.2,0.4,0.3,0.7,0.3c0.6,0.2,0.7,0.2,0.7,0.7
				c0,0,0,0.1,0,0.1c0,0.2,0,0.4,0.2,0.6c0.1,0.1,0.3,0.1,0.3,0.2c0.2,0.3,0.3,0.2,0.5,0c0.1-0.1,0.3-0.1,0.5-0.1c1,0,2,0,3,0
				c0.2,0,0.3-0.2,0.4-0.2c0.1,0,0.2,0.1,0.2,0.2c0,0,0.1,0,0.1,0c0.1,0,0.1,0,0.2,0c0.2,0,0.4-0.1,0.6-0.1c0.3,0,0.7,0,0.7,0.5
				c0.1,0,0.1,0,0.2,0c0.1-0.6,0.1-0.7,0.6-0.5c0.1,0,0.2,0.3,0.3,0.1c0.4-0.5,0.7-0.2,0.9,0.2c0.6,0,1.3-0.1,1.9-0.1
				c4.7-0.3,9.4-0.7,14.1-0.8c0,0.4,0,0.7-0.1,1c0,0.3,0,0.6-0.1,0.9c-0.1,0.6-0.2,0.8-0.8,0.8c-0.7,0.1-1.4,0-2.1,0
				c-0.3,0-0.5-0.1-0.8,0.1c-0.3,0.2-0.6,0.2-0.9,0.2c-2.5,0-4.9,0-7.4-0.1c-0.3,0-0.4,0.1-0.5,0.4c0,0.4-0.2,0.4-0.6,0.4
				c-0.1,0-0.3,0-0.4,0c-1.3,0.1-2.6,0-3.8-0.1c-0.4,0-0.9,0.4-1.3-0.1c0-0.1-0.1,0-0.1,0c-0.3,0.4-0.8,0.2-1.2,0.2
				c-0.5,0-1.1,0-1.6,0c-4.2,0-8.4,0-12.6-0.1c-0.2,0-0.4-0.1-0.5,0.2c-0.1,0.8-0.6,0.6-1,0.6c-0.3,0-0.6-0.2-0.8,0.3
				c-0.1,0.2-0.3,0.3-0.6,0.2c-1-0.2-2,0.1-3,0.2c-0.2,0-0.5,0-0.7,0.2c0,0.2,0,0.4,0,0.6c0,0,0,0,0,0c0.1,0,0.1,0.1,0.1,0.1
				c0.2,0.2,0.8,0.1,0.7,0.6c0,0.1,0.1,0.2,0.2,0.2c0.7-0.1,0.7,0.4,0.7,0.8c0,0.3,0.1,0.7,0.1,1c0,0.4,0.1,0.6,0.6,0.6
				c0.3,0,0.6-0.2,0.9,0c0.1-0.1,0.2-0.2,0.2-0.3c0-0.2-0.1-0.4,0.2-0.4c0.2,0,0.3,0.2,0.3,0.4c0,0.1,0,0.2,0,0.3c0,0,0,0,0,0
				c0.1,0,0.1,0,0.1,0.1c0.1,0.1,0.2,0.2,0.2,0.4c0.1,0.1,0.1,0.1,0.2,0.2c0.2,0,0.5,0,0.7,0c0.2-0.1,0.3,0.1,0.3,0.2
				c0,0.3,0.1,0.6-0.2,0.8c0,0.1,0,0.1,0,0.2c0.2,0.2,0.1,0.5,0.1,0.8c0,0.1,0,0.1,0.1,0.2c0.1,0.1,0.1,0.2,0,0.3c0,0,0,0,0,0
				c0,0.3,0.5,0.4,0.3,0.8c0,0.1,0,0.2,0.1,0.3c0.1,0.1,0.2,0.2,0.2,0.3c0,0.2,0,0.4,0,0.6c0.1,1.4,0.1,1.4,1.5,1.4
				c0.2,0,0.4-0.1,0.6,0.2c0,0,0.1,0.1,0.1,0.1c0.3,0.3,0.3,0.6,0.2,1c0,0,0,0,0,0c0,0.1,0,0.1,0.1,0.1c0.4,0.2,0.7,0.3,1.2,0.3
				c0.7,0,1.4-0.1,2.1,0.1c0.2,0,0.3,0,0.5,0c0.9-0.2,1.8-0.2,2.7,0c2.4,0.1,4.7,0,7.1,0c0.1-0.1,0.1-0.1,0.2,0c0.6,0,1.2,0,1.8,0
				c0.5-0.1,1.1-0.2,1.6,0.1c0,0,0.1,0,0.1,0c0.7,0,1.4,0,2.1,0c0.3,0,0.4,0.1,0.3,0.4c-0.2,0.7-0.2,1.5-0.4,2.2
				c0,0.9-0.3,1.7-0.4,2.6c-0.1,0.2-0.2,0.1-0.3,0.1c-0.1,0-0.3,0-0.4-0.1c-0.2,0.3-0.2,0.6-0.3,1c0,0.3-0.2,0.4-0.5,0.4
				c-0.3,0-0.7,0.1-1-0.1c-0.1,0-0.2,0-0.3,0.1c0,0.1,0,0.2-0.1,0.2c0,0,0,0.1,0,0.1c-0.1,0.6,0,0.6,0.6,0.7c0.3,0,0.7-0.1,1,0.1
				c0.1,0.7-0.3,1.3-0.2,2c0.1,0.2,0.1,0.5-0.2,0.5c-0.5-0.1-1.1,0.1-1.6,0c-1.8,0.1-3.7-0.1-5.5-0.1c-0.1,0-0.1,0.1-0.2,0.1
				c-0.1,0.3-0.1,0.6-0.2,0.9c0,0.5,0.2,1,0.1,1.6c0,0.2-0.1,0.5,0.2,0.7c0.1,0.1,0,0.3,0,0.4c0,0.1,0,0.2,0,0.2c0.2,0,0.3,0,0.5,0
				c0,0,0.1,0,0.1,0c0,0,0,0,0,0.1c0.2,0.2,0.2,0.5,0.1,0.7c0,0.1,0,0.1,0,0.2c0.1,0,0.1,0.1,0.2,0.1c0.2,0.1,0.1,0.2,0,0.3l0,0.1
				c0,0.1,0,0.2,0,0.3c0,0.1,0,0.1,0,0.2c-0.1,0.1-0.1,0.2-0.2,0.3c0.1,0.1,0.3,0.1,0.5,0.1c0.3,0,0.5,0.1,0.6,0.3
				c0.3,0.2,0.3,0.6,0.3,0.9c0,0.2,0,0.4-0.1,0.6c0.1,1,0.2,2,0.3,3c0,0.2,0,0.4,0,0.6c0,0.3-0.3,0.4-0.5,0.4
				c-0.3,0-0.5-0.2-0.4-0.4c0.2-0.7-0.3-1.4-0.1-2.1c0-0.1-0.2-0.3-0.3-0.5c-0.2-0.1-0.3-0.2-0.5-0.3c-0.2,0-0.4,0-0.6,0
				c-0.1,0-0.1,0-0.1-0.1c0,0,0-0.1,0-0.1c0,0-0.1,0-0.1,0c-0.1,0.2-0.3,0.2-0.5,0.2c-0.1,0.1-0.2,0.1-0.3,0c-0.5,0.1-1-0.1-1.4,0
				c0,0.1-0.1,0.2-0.2,0.2c-0.2,0.2-0.4,0.1-0.7,0.1c-0.3,0-0.3-0.2-0.3-0.4c0,0,0-0.1,0-0.1c0-0.1,0-0.4-0.2-0.3
				c-0.1,0-0.1,0.2-0.1,0.3c0,0.1,0,0.1,0,0.2c0,0.1-0.1,0.3-0.1,0.4c0.1,0.1,0.1,0.1,0.2,0.2c0.2,0,0.4,0.1,0.6,0.2
				c0.5,0.2,0.6,0.5,0.3,1c-0.2,0.2-0.4,0.3,0,0.6c0.1,0.1,0,0.5-0.2,0.7c-0.4,0.8,0,1.6-0.2,2.4c0,0.1,0,0.2,0,0.3
				c0,0.1,0,0.2,0,0.3c0,0.1,0,0.1,0,0.2c0.4,0,0.4,0.3,0.3,0.5c-0.2,0.6,0.2,1,0.2,1.6c0,0.2,0.3,0.2,0.4,0.2c0.5,0,1-0.1,1.5,0.1
				c0.4-0.1,0.7,0,1.1,0c0.6-0.1,1.3-0.1,1.9,0c0.5-0.1,1-0.1,1.4,0c0.2-0.1,0.3,0,0.5,0c0.2,0,0.3,0,0.5,0c0.2-0.1,0.3,0,0.5,0
				c1.6,0,3.1,0.1,4.7,0.1c0.7-0.1,1.4-0.1,2.1,0c0.4,0,0.8,0,1.3,0c0.5-0.1,0.9-0.1,1.3,0.1c0.3-0.1,0.6,0,0.9,0
				c0.2-0.1,0.5,0,0.7-0.2c-0.1-0.4-0.2-0.8-0.2-1.2c0-0.1,0-0.3,0.2-0.3c0.1,0,0.3,0.1,0.2,0.3c-0.2,0.3,0,0.5,0.3,0.7
				c0.2,0.1,0.1,0.3-0.1,0.3c-0.2,0.1-0.5,0-0.3,0.4c1.5,0,3,0.1,4.5,0.1c0.2,0.3,0.1,0.7,0.1,1c0,0.5,0.1,0.9-0.2,1.4
				c-0.2,0.3-0.2,0.8-0.3,1.3c0.1,0.5,0.1,1.1,0.1,1.6l0,0c0.2,0.1,0.1,0.2,0.1,0.3c0,0.1,0,0.1,0,0.2c0,0.8,0,0.8-0.7,0.8
				c-0.2,0-0.5,0-0.7,0c0,0,0,0.1,0,0.1c0.1,0,0.4,0.1,0.2,0.2c-0.2,0.2-0.2,0.2,0,0.3c0.2,0.2,0.1,0.9-0.1,1.4
				c0.3,0.1,0.6,0.1,0.8,0.1c0.6,0,0.6,0,1,0.7c0.1,0.2,0.4,0.4,0.2,0.7c0.5,0.3,1.1,0.1,1.7,0.2c0.1,0,0.3,0,0.4,0
				c0.2,0,0.5,0,0.8,0.1c-0.3,0.2-0.6,0.2-0.8,0.2c-0.1,0-0.3,0-0.4-0.1c-1.1-0.1-2.1-0.2-3.1,0.2c-0.1,0-0.2,0-0.2,0
				c-0.2-0.5-0.7-0.2-1.1-0.3c-0.4-0.2-0.8-0.3-1.3-0.2c-0.1,0-0.2-0.1-0.3-0.1c-0.2,0-0.4,0-0.6,0c-0.4,0-0.6,0.2-0.6,0.6
				c0,0.4,0.1,0.9,0.3,1.4c0-0.5,0-0.8,0-1.2c0-0.1,0-0.2,0.2-0.2c0.1,0,0.3,0,0.3,0.1c0.1,0.3,0.3,0.6,0.2,1c-0.1,1,0,2.1,0.8,3
				c0.4,0.5,0.8,1,1.2,1.4c0.3,0.2,0.5,0.5,0.3,0.9c-0.1,0.3,0,0.6,0.1,0.9c0.1,0.2,0,0.4-0.3,0.4c-0.6,0-1.3,0-1.9-0.2
				c-0.2-0.2-0.1-0.5,0-0.8c-0.2,0-0.3,0-0.3,0.2c-0.1,0.4-0.2,0.7-0.1,1.1c0,0.1-0.1,0.3-0.2,0.3c-0.1,0-0.3-0.2-0.2-0.3
				c0.3-0.7-0.2-0.5-0.5-0.5c-0.1,0-0.1,0-0.2,0c-1.6,0.1-3.1,0-4.7-0.1c-0.1,0-0.2-0.1-0.3-0.2c-2,0.1-4,0-5.9,0
				c-0.1,0-0.2,0.1-0.3,0.1c-0.2,0-0.5,0-0.7,0c-0.6,0.1-1.1,0-1.7,0c-0.1,0.1-0.1,0.1-0.2,0c-0.1,0-0.2,0-0.3,0
				c-0.2-0.2-0.2-0.5-0.5-0.7c-0.1-0.2-0.1-0.3-0.1-0.5c-0.1-0.2-0.1-0.4-0.2-0.5c-0.1-0.1-0.2-0.2-0.4-0.2c0,0-0.1,0.1-0.2,0.2
				c0,0-0.1,0-0.1,0c0,0-0.1,0-0.1,0c-0.3-0.1-0.6-0.2-0.9-0.3c-0.1,0-0.2,0-0.3,0c0,0.1-0.1,0.2-0.1,0.3c-0.1,0.4-0.1,0.7-0.4,1
				c0,0.5,0,1,0,1.5c0,0.1,0,0.2,0,0.2c0,0.1,0,0.2,0,0.3c0,0.3,0.1,0.5-0.3,0.7c-0.1-0.2-0.1-0.5-0.1-0.7c0-0.1,0-0.2,0-0.2
				c0-0.1,0-0.2,0-0.3c0-0.6,0-1.2,0.1-1.8c0-0.2,0.1-0.4,0.2-0.7c0-0.1,0-0.3,0-0.4c-0.1,0-0.2,0.1-0.3,0.1
				c-0.4-0.1-0.7-0.1-0.8,0.4c-0.1,0.3-0.3,0.3-0.4-0.1c-0.1-0.1-0.3-0.2-0.3,0.1c0,0.4-0.2,0.5-0.6,0.4c-0.4-0.1-0.6,0.4-0.9,0.4
				c-0.3,0-0.5-0.3-0.9-0.2c-0.1,0-0.2,0.1-0.2,0.2c0,0.6-0.3,1.2-0.2,1.8c0.1,0.2,0.1,0.5,0.1,0.7c0,0.2,0.1,0.3,0.3,0.4
				c0.3,0.1,0.5-0.1,0.8-0.3c0.1,0.1,0.2,0.1,0.2,0.2c0.1,0,0.2,0,0.3,0c0.2-0.1,0.2-0.2,0.1-0.4c-0.1-0.2-0.4-0.5,0-0.7
				c0-0.3-0.1-0.7-0.1-1c0.2-0.1,0.3,0,0.4,0c0.3,0,0.4,0.2,0.4,0.5c-0.1,0.4,0,0.9,0,1.3c0,0.2,0.1,0.4,0.2,0.5
				c0.2,0,0.3,0.2,0.5,0.2c0.3,0,0.2,0.2,0.1,0.4c0,0.3-0.1,0.6,0.4,0.4c0,0,0,0,0.1,0c0.3-0.1,0.7-0.1,1-0.2
				c0.8-0.1,1.7-0.1,2.5-0.2c0-0.3-0.3-0.7-0.1-0.9c0.3-0.3,0.5-0.6,0.9-0.7c0.1-0.1,0.3-0.1,0.4-0.1c0.1,0,0.1,0,0.2,0
				c1.2,0.1,2.4,0.1,3.5,0.1c2.4,0.1,4.8,0.1,7.1,0.5c0.1,0,0.1,0,0.2,0c0.1,0,0.2,0,0.3-0.1c0.3-0.3,0.6-0.2,0.9-0.2
				c0.5,0,1,0,1.5,0c0.1,0,0.2,0,0.4-0.1c0.4-0.3,0.4-0.3,0.5,0.2c0,0.1,0,0.3,0,0.4c0,0.1,0,0.2,0.1,0.3c0.1,0,0.2,0,0.3,0
				c0-0.1,0-0.1,0-0.2c0-0.6,0-0.6,0.5-0.6c0.4,0,0.9,0,1.3,0c0.4,0,0.4,0.2,0.3,0.5c-0.2,1.1-0.2,2.2-0.1,3.3
				c0.1,0.1,0.1,0.3,0,0.4c0,0.2,0.1,0.4,0.1,0.5c0,0.3,0.1,0.4,0.4,0.3c0,0,0.1,0,0.2,0c0.1,0,0.3,0.1,0.2,0.3
				c0,0.2-0.2,0.2-0.3,0.2c-0.6-0.1-1.3,0-1.9-0.1c-1.1,0-2.2,0-3.3-0.1c-0.2,0.1-0.1,0.4-0.2,0.6c0,0,0,0,0,0
				c0,0.8-0.1,1.5-0.2,2.3c0,0.1,0,0.2,0,0.2c0,0.3,0.1,0.6-0.2,0.8c0,0,0,0,0,0c-0.2,0.1-0.3,0.2-0.5,0.3c0,0,0,0,0,0
				c0,0.1,0,0.1,0,0.2c0,0.2,0,0.4,0,0.6c0,0.4-0.1,0.8-0.3,1.2c-0.2,0.1-0.3,0-0.5,0c0,0.1-0.1,0.2-0.1,0.2c0,0,0,0,0,0
				c0,0.3,0.1,0.7-0.1,0.9c-0.2,0.1-0.2,0-0.3-0.1c-0.1-0.2,0-0.4-0.2-0.6c-0.1,0.3-0.1,0.7-0.5,1c-0.2,0.1-0.2,0.6-0.6,0.5
				c-0.2,0-0.2,0.2-0.2,0.3c0,0.3,0,0.5-0.1,0.8c0,0.2-0.1,0.4-0.3,0.3c-0.5-0.1-0.9,0.2-1.4,0.1c-0.4,0-0.8,0-1.2,0
				c0.4,0.1,0.9,0.1,1.3,0.1c0.4,0,0.9,0.1,1.3,0.3c0.3,0.1-0.1,0.6,0,1c0,0.1,0,0.3,0.1,0.4c0,0,0.1,0,0.1,0c0.6,0,0.6,0,0.4,0.5
				c0,0.1,0,0.3,0,0.4c0,0,0,0,0,0c0,0.6,0,1.2,0,1.7c0.3,0,0.7,0,1,0c0.2-0.1,0.4-0.1,0.6,0c0,0,0,0,0,0c0.3,0.2,0.5,0.3,0.4,0.8
				c-0.1,0.3-0.2,0.7-0.1,1.1c0,0.3-0.3,0.6,0.1,0.8c0.1,0.1,0,0.3-0.2,0.3c-0.4,0-0.8-0.1-1.2-0.3c-0.1,0-0.1-0.2-0.1-0.2
				c0.5-0.3,0.1-0.7,0.2-1c-0.2,0-0.4-0.1-0.7-0.1c0,0.6,0,1.2,0,1.8c0,0.2,0,0.5,0,0.7c0,0.7,0,1.5,0,2.2c1.4,0,2.9,0,4.3,0
				c0.1-0.7,0-1.5,0-2.2c0,0,0-0.1,0-0.1c0-0.2,0-0.4,0-0.6c0-0.2,0-0.3,0-0.5c0-0.2,0.1-0.3,0.3-0.4c0.1,0.3,0.1,0.6,0.2,0.9
				c0,0.2,0,0.5,0,0.7c0,0.3,0,0.5-0.1,0.8c0,0.5,0,0.9,0.1,1.4c0.1,0,0.1,0,0.2,0c0-0.3-0.1-0.7,0.1-1c0,0,0,0,0,0
				c0.2-0.1,0.3,0,0.4,0c0,0,0.1,0.1,0.2,0.1c0.3,0,0.4,0.3,0.1,0.4c-0.3,0.1-0.3,0.3-0.2,0.5c1.6,0,3.3,0,4.9,0
				c0-0.1,0-0.2,0.1-0.3c0.2,0,0.2,0.1,0.2,0.3c3,0,5.9,0,8.9,0c0-0.1,0.2-0.1,0.1-0.2c-0.6-0.3-0.3-0.8-0.4-1.4
				c0.6,0.5,0.9,1.1,1.2,1.5c0.2,0,0.4,0,0.6,0c0-0.1,0-0.2,0-0.3c0-0.2-0.1-0.4,0.2-0.4c0.2,0,0.2,0.2,0.2,0.4
				c0,0.1-0.1,0.3,0.1,0.3c1.5,0,5.5,0.4,10.6,0.9c-4.4-4.3-8.8-8.7-13.2-13c-2.5-2.5-3.7-5.2-2.6-8.7c1.7-5.9,3.4-11.8,5.1-17.7
				c0.3-1,0.7-1.1,1.6-1.1c3.2,0,6.5,0,9.8-0.1c3.4-0.1,5.3-1.3,5.8-4.3c0.2-1.3-0.4-2.9-0.9-4.2c-0.4-1.1-0.7-1.8,0.5-2.6
				c1.6-1.1,1.8-2.7,0.5-4.2c0.4-0.6,1-1.2,1.2-1.9c0.2-0.6,0.1-1.7-0.2-1.9C235.1,122.4,236.8,121.6,237.6,120.9z M177.3,76.4
				c0.1,0,0.2,0,0.2,0.1c0,0.1-0.1,0.3-0.2,0.3c-0.2,0-0.2-0.1-0.2-0.2C177,76.5,177.2,76.5,177.3,76.4z M179.1,78
				c-0.4,0-0.8,0-1.2,0c0,0,0,0,0,0c-0.5,0-0.9,0-1.4,0c-0.1,0-0.2-0.1-0.2-0.2c0-0.1,0.1-0.2,0.2-0.2c0.9-0.1,1.8-0.1,2.7,0
				c0.1,0,0.3,0.1,0.2,0.3C179.4,78,179.2,78,179.1,78z M180.9,77c-0.4,0-0.9,0-1.3,0c-0.4,0-0.8-0.2-1.2-0.1
				c-0.2,0.1-0.3-0.1-0.3-0.3c0-0.2,0.1-0.3,0.3-0.3c0.4,0,0.8,0,1.3,0c0.3,0,0.8-0.1,1.2,0.1c0.1,0,0.3,0.1,0.3,0.2
				C181.1,76.9,181,77,180.9,77z M185,82.3c0-0.4,0.1-0.8,0.1-1.2c0.1,0.4,0.1,0.8,0.2,1.2c0,0,0,0.1,0,0.1c0,0.1,0,0.2-0.1,0.2
				C185.1,82.6,185,82.6,185,82.3C185,82.4,185,82.4,185,82.3z M185.2,85.1c-0.1-0.2-0.1-0.4-0.1-0.6c0-0.3-0.1-0.7-0.1-1
				c0-0.2-0.1-0.4,0.2-0.4c0.3,0,0.3,0.2,0.4,0.4c0,0.1,0,0.2,0,0.3c-0.1,0.4,0.2,0.8,0.1,1.3c0,0.1,0,0.2-0.2,0.3c0,0,0,0-0.1,0
				h-0.1C185.3,85.3,185.2,85.2,185.2,85.1z M185.4,87.2c0-0.4-0.1-0.7-0.1-1.2c0-0.2,0-0.3,0-0.5c0.3,0.1,0.5,0.3,0.5,0.5
				c0,0.1,0,0.2,0,0.2c-0.1,0.3,0.1,0.6,0.1,0.8c0.1,0.3-0.1,0.4-0.3,0.4C185.3,87.6,185.4,87.4,185.4,87.2z M185.7,89.3
				c0.1-0.3,0.1-0.5-0.1-0.7c-0.1-0.1,0-0.3,0.1-0.3c0.2-0.1,0.3,0,0.4,0.2c0.1,0.2,0.1,0.4,0,0.6c0,0.1,0,0.2,0,0.3
				c0,0.2,0,0.3-0.2,0.3C185.7,89.7,185.7,89.5,185.7,89.3z M186.5,91.5c-0.2-0.2-0.4-0.4-0.5-0.7c-0.1-0.2-0.1-0.3-0.1-0.5
				c0-0.1,0-0.3,0.2-0.3c0.2,0,0.3,0,0.3,0.2c0,0.2,0.1,0.4,0.1,0.6C186.5,91,186.5,91.2,186.5,91.5z M188.1,82.3
				c-0.2-0.3-0.2-0.5-0.1-0.8c0-0.1,0-0.1,0.1-0.2c0.1-0.3-0.3-0.6,0.1-1c0,0.4,0.2,0.8,0.2,1.2C188.3,81.7,188.3,82,188.1,82.3z
				 M189.8,85.8c0.1,0,0.1,0.1,0.1,0.1c0,0,0,0.1,0,0.1c0,0.1-0.1,0.1-0.2,0.1c0,0-0.1,0-0.1-0.1c0,0,0-0.1,0-0.1
				C189.7,85.9,189.7,85.8,189.8,85.8z M189.5,91.7c-0.1,0.1-0.3,0-0.3-0.1c-0.1-0.1-0.1-0.2-0.1-0.3c0-0.2-0.1-0.3-0.1-0.5
				c0,0,0-0.1,0-0.1c0-0.2-0.1-0.4-0.1-0.7c0.3,0,0.5,0.2,0.5,0.4c0,0.3,0.1,0.6,0.2,0.9C189.7,91.5,189.6,91.7,189.5,91.7z
				 M189.8,88.7c0-0.1-0.1-0.2-0.1-0.3c0-0.1,0-0.3,0.2-0.3c0.1,0,0.3,0,0.3,0.2c0.1,0.4,0.2,0.8,0.1,1.2c0,0.2-0.2,0.2-0.3,0.1
				C189.6,89.4,189.6,89.1,189.8,88.7z M190.1,91c-0.1-0.3-0.2-0.5-0.2-0.7c0-0.2,0-0.2,0.2-0.3c0.2,0,0.3,0,0.3,0.2
				C190.3,90.5,190.4,90.8,190.1,91z M190.6,91.6c0,0.1-0.1,0.1-0.2,0.1c-0.1,0-0.2-0.1-0.1-0.1c0-0.1,0.2-0.1,0.2-0.2
				C190.6,91.4,190.6,91.5,190.6,91.6z M190.8,86.1C190.8,86.1,190.8,86.1,190.8,86.1c-0.1,0-0.2,0-0.2,0c-0.1,0-0.1-0.1-0.1-0.2
				c0-0.1,0.1-0.2,0.2-0.2c0.2,0,0.1,0.2,0.1,0.3C190.8,86,190.8,86,190.8,86.1z M190.7,76.8c-0.1,0-0.2-0.1-0.2-0.2
				c0-0.1,0.1-0.2,0.3-0.2c0.2,0,0.2,0.1,0.2,0.2C190.9,76.8,190.8,76.8,190.7,76.8z M191.3,91.2c-0.2-0.3-0.1-0.5,0-0.8
				C191.4,90.6,191.5,90.9,191.3,91.2z M192.7,70.5c0.3,0,0.1,0.2,0.1,0.3c0,0.2,0.3,0.4,0,0.6c0,0.1,0.2,0.2,0.2,0.4
				c0,0,0,0.1-0.1,0.1c0,0-0.2,0.1-0.2,0c0,0,0,0,0,0c-0.2-0.2,0.1-0.4,0-0.6c-0.3-0.1,0-0.3-0.2-0.5
				C192.4,70.7,192.5,70.5,192.7,70.5z M192.7,86.3c-0.3,0-0.4-0.2-0.4-0.5c0-0.1,0.1-0.2,0.2-0.2c0.3,0,0.4,0.2,0.5,0.4
				C192.9,86.2,192.8,86.2,192.7,86.3z M193.5,82.3c0,0.1,0,0.2-0.2,0.2c-0.1,0-0.2-0.1-0.2-0.2c0,0,0-0.1,0-0.1
				c0-0.1,0-0.4,0.2-0.3c0.2,0,0.1,0.2,0.2,0.4C193.5,82.3,193.5,82.3,193.5,82.3z M197.3,79.6c0-0.1,0-0.2,0.2-0.2
				c0.2,0,0.1,0.2,0.1,0.3c0,0.1,0,0.3-0.2,0.2C197.3,79.8,197.3,79.7,197.3,79.6z M195.5,87.2c-0.1-0.4,0-0.9-0.1-1.3
				c0-0.2,0.1-0.2,0.2-0.3c0.2,0,0.2,0.1,0.3,0.2c0.1,0.3,0.1,0.7,0.1,1c0,0.1,0,0.2,0,0.3c0,0.2,0.1,0.5-0.2,0.5
				C195.6,87.7,195.6,87.4,195.5,87.2z M195.9,88.4c0.1,0,0.2,0,0.2,0.1c0,0.4,0.2,0.8,0.1,1.2c-0.5-0.3-0.3-0.8-0.5-1.2
				C195.7,88.5,195.9,88.4,195.9,88.4z M196.5,91.6c-0.1,0-0.2,0-0.3-0.1c-0.2-0.3-0.2-0.7-0.2-1.1c0-0.1-0.1-0.3,0.2-0.3
				c0.2,0,0.3,0.1,0.3,0.3c0.1,0.3,0.1,0.7,0.2,1C196.6,91.5,196.6,91.6,196.5,91.6z M197.3,82.4c0-0.6-0.1-1.2-0.1-1.8
				c0-0.1,0-0.3,0.1-0.3c0.2,0,0.2,0.1,0.2,0.3c0,0.6,0.1,1.1,0.1,1.7c0,0.1,0.1,0.3-0.1,0.4C197.3,82.8,197.3,82.6,197.3,82.4z
				 M197.9,84.1c0,0.4,0.1,0.7-0.1,1.1c-0.4-0.7,0-1.4-0.4-2.1C198.1,83.3,197.9,83.8,197.9,84.1z M197.7,86.4
				c-0.3,0-0.2-0.3-0.1-0.4c0-0.1,0.1-0.3,0.2-0.2c0.2,0.1,0.2,0.2,0.2,0.4C198,86.3,197.9,86.4,197.7,86.4z M199.3,68.3
				c0.3-0.2,0.2-0.6,0.4-0.9c0.1,0.4,0,0.7-0.1,1c-0.1,0.2-0.2,0.3-0.4,0.2C199.1,68.6,199.2,68.4,199.3,68.3z M199.5,70.1
				c-0.1,0-0.2-0.1-0.2-0.2c0-0.1,0.1-0.1,0.2-0.1c0.1,0,0.2,0.1,0.2,0.2C199.6,70.1,199.6,70.2,199.5,70.1z M199.8,74.8
				c-0.1,0-0.2,0-0.2-0.1c0-0.1,0-0.2,0.1-0.2c0.1,0,0.1,0.1,0.2,0.1C200,74.8,199.9,74.8,199.8,74.8z M200,74
				c0,0.1-0.1,0.1-0.2,0.1c-0.1,0-0.1-0.1-0.1-0.2c0-0.1,0.1-0.2,0.2-0.1C199.9,73.9,200,73.9,200,74z M200.7,70.2
				c0,0.1-0.1,0.1-0.2,0.1c-0.1,0-0.1-0.1-0.2-0.1c0-0.1,0.1-0.1,0.2-0.1C200.7,70.1,200.7,70.1,200.7,70.2z M200.5,68.4
				c0.1,0,0.1,0,0.1,0.1c0.1,0.1,0,0.1,0,0.2c-0.1,0.1-0.1,0.1-0.2,0.1C200.3,68.6,200.2,68.5,200.5,68.4z M200.4,69
				c0.1,0.2,0.3,0.3,0,0.3C200.2,69.3,200.4,69.1,200.4,69z M200.4,71.3c0-0.1,0-0.2,0.1-0.2c0,0,0.1,0,0.1,0c0,0,0.1,0.1,0.1,0.2
				c0,0,0,0.1-0.1,0.1c0,0,0,0,0,0C200.5,71.5,200.4,71.4,200.4,71.3z M200.8,73.7C200.7,73.7,200.7,73.7,200.8,73.7
				c-0.1,0-0.2,0-0.2-0.1c0-0.1,0-0.2,0.1-0.2c0,0,0,0,0.1,0c0.1,0,0.2,0,0.1,0.1C200.9,73.6,200.8,73.7,200.8,73.7z M202.8,74.1
				c-0.1,0-0.2-0.1-0.1-0.1c0.1-0.2,0.1-0.4,0.3-0.5c0.1,0,0.2,0.1,0.2,0.1C203.1,73.8,203.1,74,202.8,74.1z M203.8,70.3
				c0-0.1,0.1-0.1,0.2-0.1c0,0,0,0.1,0.1,0.1c0,0.1-0.1,0.1-0.2,0.1C203.7,70.4,203.7,70.3,203.8,70.3z M204,86.5
				c-0.3-0.2,0-0.5-0.1-0.8C204.2,85.9,204,86.2,204,86.5z M205,77.4c-0.1,0-0.2,0-0.2-0.1c0-0.1,0-0.2,0.2-0.2c0,0,0.1,0,0.2,0.1
				C205.2,77.3,205.1,77.4,205,77.4z M205.1,72.9c0.2,0.3,0,0.6,0.2,0.8c0.1,0.1,0.1,0.2,0,0.3c-0.2,0.1-0.4,0-0.4-0.1
				C204.8,73.6,204.8,73.2,205.1,72.9z M205.5,91.1c-0.1,0-0.2,0-0.2-0.1c0-0.1,0.1-0.1,0.1-0.1c0.1,0,0.2,0,0.2,0.1
				C205.6,91.1,205.6,91.1,205.5,91.1z M205.3,71.1c-0.2,0-0.2-0.1-0.2-0.3c0-0.4-0.1-0.8-0.1-1.3c0-0.3-0.1-0.6-0.1-0.8
				c0-0.1,0-0.3,0-0.4c0-0.4,0-0.8-0.1-1.3c0-0.3,0.1-0.4,0.3-0.4c0.2,0,0.5-0.1,0.6,0.3c0.1,1.2,0.2,2.3,0.2,3.4c0,0.1,0,0.2,0,0.3
				C205.9,71.1,205.8,71.2,205.3,71.1z M205.9,77.7c-0.1,0-0.2-0.1-0.2-0.2c0-0.2,0-0.4,0.3-0.4c0.1,0,0.3,0.1,0.3,0.2
				C206.3,77.6,206.2,77.7,205.9,77.7z M207.2,87.5c-0.2-0.5-0.7-1-0.1-1.7C207.4,86.4,207.2,87,207.2,87.5z M207.9,87.6
				c-0.2,0-0.1-0.1-0.2-0.2c0-0.1,0-0.3,0.2-0.3c0.1,0,0.1,0.2,0.1,0.3C208,87.5,208,87.6,207.9,87.6z M208.3,71.9
				c-0.3,0-0.2-0.3-0.3-0.4c0-0.2,0.1-0.3,0.2-0.3c0.2,0,0.4,0.1,0.4,0.3C208.5,71.7,208.5,71.8,208.3,71.9z M171.5,100.5
				c-0.1,0-0.2-0.1-0.2-0.2c0-0.1,0-0.2,0.1-0.2c0.2,0,0.2,0.1,0.2,0.2C171.7,100.4,171.6,100.5,171.5,100.5z M178.9,108.2
				c0,0-0.1-0.1,0-0.1c0-0.1,0-0.2,0.1-0.1c0.1,0,0.1,0.1,0.1,0.2C179.1,108.2,179.1,108.3,178.9,108.2z M179.2,101.5
				c-0.1-0.1,0-0.3,0.1-0.3c0.1-0.1,0.3-0.1,0.4,0c0.1,0.1,0.1,0.2,0.1,0.3c-0.1,0.2-0.1,0.3-0.2,0.5
				C179.4,101.8,179.3,101.6,179.2,101.5z M179.6,102.2c0.1,0,0.2,0.1,0.2,0.2c0,0.1,0,0.3-0.2,0.3c-0.2,0-0.2-0.1-0.2-0.3
				C179.3,102.3,179.4,102.2,179.6,102.2z M180,107.6c-0.1,0.1-0.2,0-0.3,0c-0.4-0.4-0.4-1.2-0.1-1.7c0,0-0.1-0.1,0-0.1
				c0,0,0,0,0-0.1c0-0.2-0.1-0.5,0.2-0.5c0.3,0,0.3,0.3,0.2,0.6c0,0.5,0.1,1.1-0.2,1.6c0,0.1,0,0.1,0.1,0.2
				C179.9,107.5,180.1,107.5,180,107.6z M180.9,107.8c-0.2,0.1-0.4-0.1-0.4-0.3c0-0.3,0-0.6,0-0.7c0-0.4,0-0.6,0-0.8
				c0-0.2,0.1-0.2,0.2-0.3c0.2,0,0.3,0,0.3,0.2c0,0.3,0.2,0.7,0,1c-0.1,0.1-0.1,0.3,0,0.4C181.1,107.5,181.2,107.7,180.9,107.8z
				 M180.9,98.9c0,0.2-0.1,0.2-0.3,0.2c-0.1,0-0.2-0.1-0.2-0.2c0-0.2,0.1-0.2,0.3-0.2C180.9,98.7,180.9,98.8,180.9,98.9z
				 M180.9,97.8c0.1,0,0.1,0,0.1,0.1c0,0,0,0.1-0.1,0.1c-0.1,0-0.1,0-0.2-0.1C180.8,97.9,180.8,97.9,180.9,97.8z M182,108.1
				c-0.4-0.3-0.5-0.7-0.4-1.1c0-0.3,0.1-0.6-0.1-0.9c0-0.1,0-0.2,0.1-0.3c0.1-0.1,0.2,0,0.3,0.1c0.2,0.2,0.2,0.5,0.2,0.7
				c-0.1,0.3-0.1,0.6,0.1,1C182.3,107.8,182.2,108,182,108.1z M183,107.4c-0.1,0-0.1,0-0.1-0.1c0-0.1,0-0.2,0.1-0.2
				c0.1,0,0.1,0.1,0.1,0.1C183.1,107.3,183.1,107.4,183,107.4z M185.6,100.1c0-0.1,0.1-0.2,0.2-0.2c0.1,0,0.3,0,0.3,0.2
				c0,0.2-0.1,0.2-0.2,0.2C185.8,100.2,185.6,100.2,185.6,100.1z M186.1,100.8c-0.1,0-0.2,0-0.2-0.2c0-0.1,0.1-0.1,0.2-0.1
				c0.1,0,0.1,0,0.2,0.1C186.2,100.7,186.1,100.8,186.1,100.8z M186.2,99C186.2,99.1,186.1,99.1,186.2,99c-0.1,0-0.2,0-0.2,0
				c0,0-0.1-0.1-0.1-0.1c0-0.1,0.1-0.2,0.2-0.3c0.1,0,0.2,0.1,0.2,0.2C186.3,98.9,186.2,99,186.2,99z M187.8,103.9
				c0-0.1,0-0.2,0.1-0.1c0.1,0,0.2,0.1,0.2,0.2c0,0.1,0,0.1-0.2,0.1C187.8,104.1,187.8,104,187.8,103.9z M188.4,108.7
				c-0.1,0.1-0.2,0.2-0.3,0.1c-0.1,0-0.2-0.2-0.2-0.3c0-0.1-0.1-0.2,0-0.4c0.2-0.1,0.3,0.1,0.4,0.2
				C188.5,108.4,188.5,108.6,188.4,108.7z M188.1,97.8C188.1,97.8,188.1,97.8,188.1,97.8C188.2,97.8,188.2,97.8,188.1,97.8
				C188.2,97.9,188.2,97.9,188.1,97.8C188.1,97.9,188.1,97.8,188.1,97.8z M189.2,102.1C189.2,102.2,189.2,102.2,189.2,102.1
				C189.1,102.2,189.1,102.2,189.2,102.1c-0.2-0.2-0.2-0.4-0.1-0.6C189.5,101.7,189.2,101.9,189.2,102.1z M189.2,102.5
				c0,0-0.1,0-0.1,0c-0.1-0.1,0-0.2,0.1-0.3C189.3,102.3,189.3,102.4,189.2,102.5z M189.1,102.9c0.3,0.3,0.3,0.6,0.2,0.9
				c0,0.1-0.1,0.2-0.2,0.2c0,0-0.1-0.1-0.1-0.2C189,103.5,189,103.2,189.1,102.9z M189.1,104.3c0.2,0,0.2,0.2,0.2,0.4
				c0,0.2,0,0.3,0.1,0.5c0.1,0.3,0,0.6-0.5,0.7c0.2-0.5-0.2-0.8-0.1-1.2C188.8,104.5,188.8,104.3,189.1,104.3z M189.2,107.6
				c-0.3,0-0.2-0.2-0.3-0.4c-0.1-0.2,0.1-0.5-0.1-0.8c-0.1-0.1-0.1-0.2,0.1-0.3c0.1-0.1,0.2,0.1,0.3,0.2c0.3,0.2,0.2,0.6,0.3,0.9
				C189.5,107.4,189.4,107.6,189.2,107.6z M191.6,107.3c0,0.1,0,0.3-0.2,0.3c-0.1,0-0.3,0-0.3-0.2c-0.1-0.2-0.1-0.5-0.2-0.7
				c0-0.2,0-0.3,0-0.5c0-0.2,0.2-0.2,0.3-0.2c0.1,0,0.3,0.1,0.3,0.2C191.3,106.7,191.6,107,191.6,107.3z M191.9,103.8
				c0-0.3,0-0.6,0-0.9c-0.1-0.1-0.1-0.2,0-0.3c0-0.1,0.1-0.3,0.1-0.4c0-0.1,0-0.2-0.1-0.3c-0.1-0.1-0.1-0.2,0-0.4
				c0.1-0.2,0.2-0.4,0.4-0.3c0.2,0,0.2,0.3,0.2,0.4c0,0.2-0.1,0.3-0.2,0.5c0,0.1,0,0.2,0,0.3c0.2,0.3,0.3,0.7,0.2,1.1
				c0.1,0.2,0.1,0.4-0.1,0.5C192.1,104.1,191.9,104.1,191.9,103.8z M192.3,105.2c-0.4,0-0.2-0.4-0.3-0.6c-0.1-0.1,0-0.2,0.2-0.3
				c0.3,0,0.4,0.2,0.4,0.5C192.5,105,192.5,105.2,192.3,105.2z M192.8,97.1c0,0.1-0.1,0.2-0.1,0.3c0,0.2-0.1,0.4,0,0.7
				c-0.4-0.2-0.3-0.5-0.3-0.7c0-0.1,0-0.1-0.1-0.1c-0.7,0-1.3,0-2,0c-0.6,0-1.2,0-1.8,0.2c-0.1,0-0.2,0-0.3-0.1
				c-0.5-0.3-1.1-0.1-1.6-0.2c-0.1,0-0.2,0.2-0.3,0.2c0,0.1,0,0.2,0,0.2c-0.1,0.2-0.1,0.5-0.4,0.4c-0.3-0.1,0-0.4,0-0.5
				c-0.1-0.2-0.1-0.4-0.4-0.3c-0.6,0.1-1.3,0.1-1.9,0c-0.4-0.1-0.4,0.3-0.7,0.6c-0.1-0.5-0.4-0.6-0.9-0.5c-0.5,0.1-1,0.1-1.5,0
				c-0.5-0.1-1-0.1-1.5,0c-0.5,0.1-1-0.1-1.5,0c-0.1,0-0.3-0.1-0.4-0.1c0-0.3,0.2-0.3,0.3-0.3c1.9,0,3.8,0,5.7,0c0.7,0,1.4,0,2,0
				c1,0,2.1,0.1,3.1,0.1c0.1,0,0.2,0,0.4,0c0.9-0.1,1.8,0.1,2.7,0c0.3-0.1,0.6,0.2,0.9,0.1C192.6,96.9,192.8,96.9,192.8,97.1z
				 M193.3,105.4c-0.1,0-0.1-0.1-0.2-0.2c0,0,0.1-0.1,0.1-0.1c0.1,0,0.2,0.1,0.2,0.2C193.5,105.3,193.4,105.4,193.3,105.4z
				 M193.6,97.2c-0.1,0-0.2,0-0.2-0.1c0-0.2,0.1-0.2,0.2-0.2c0.1,0,0.2,0,0.3,0.1C193.9,97.1,193.8,97.2,193.6,97.2z M191.6,133.5
				c-0.1,0-0.2-0.1-0.2-0.2c0,0,0.1-0.1,0.1-0.1c0.1,0,0.2,0.1,0.2,0.2C191.7,133.5,191.7,133.5,191.6,133.5z M192.6,124.7
				c-0.2,0.1-0.3,0.1-0.5,0c0,0,0-0.1,0-0.1C192.4,124.4,192.6,124.5,192.6,124.7C192.7,124.7,192.7,124.7,192.6,124.7z
				 M202.6,115.8c0,0.1,0,0.2-0.1,0.2c-0.1,0-0.2-0.1-0.2-0.1c-0.1-0.1-0.1-0.2-0.1-0.4c0.1-0.3,0.2-0.6,0.2-0.9
				C202.7,114.9,202.7,115.3,202.6,115.8z M202.3,95.5c0.1,0,0.1,0.1,0.1,0.2c0,0.1-0.1,0.2-0.1,0.2c-0.1,0-0.2-0.1-0.2-0.2
				C202.1,95.6,202.2,95.5,202.3,95.5z M201.5,100.9c0.1,0,0.2,0,0.2,0.1c0,0,0,0.1-0.1,0.1c-0.1,0-0.1,0-0.2-0.1
				C201.4,100.9,201.4,100.9,201.5,100.9z M200.8,103.7c0.3,0,0.2,0.3,0.3,0.4c0,0.3-0.1,0.5-0.3,0.5c-0.3,0-0.1-0.3-0.1-0.4
				C200.6,104,200.4,103.7,200.8,103.7z M200.8,105.2c0.3,0,0.3,0.3,0.4,0.6c0,0.2-0.1,0.3-0.3,0.3c-0.3,0-0.2-0.3-0.3-0.5
				C200.6,105.4,200.7,105.2,200.8,105.2z M200.9,106.3c0.2,0,0.3,0.1,0.3,0.3c0,0.2-0.1,0.3-0.3,0.3c-0.1,0-0.3-0.1-0.2-0.3
				C200.6,106.4,200.8,106.4,200.9,106.3z M201,107.4c0.1,0,0.2,0,0.2,0.2c0,0.1-0.1,0.2-0.1,0.3c-0.1-0.1-0.2-0.1-0.2-0.2
				C200.8,107.5,200.9,107.4,201,107.4z M201,103.3c0,0.1-0.2,0.2-0.3,0.2c-0.2,0-0.2-0.1-0.1-0.3c0.1-0.2-0.1-0.4,0-0.8
				c0.2,0.1,0.4,0,0.7,0C201.3,102.8,201,103.1,201,103.3z M200.9,101.1c-0.2,0-0.3-0.2-0.4-0.3c0-0.1,0-0.1,0.1-0.2c0,0,0,0,0.1,0
				c0,0,0.1,0,0.1,0c0.1,0,0.3,0,0.3,0.3C201.1,101,201,101.1,200.9,101.1z M200.7,97.3c0-0.1,0.1-0.1,0.1-0.1
				c0.2-0.1,0.2,0,0.3,0.1c0.1,0.1,0,0.3,0,0.4c0,0-0.1,0.1-0.1,0.1c0,0,0-0.1-0.1-0.1C200.8,97.6,200.7,97.5,200.7,97.3z
				 M200.7,98.9c0.1,0,0.3,0.1,0.3,0.2c0,0.2-0.2,0.2-0.4,0.2c-0.1,0-0.2-0.1-0.2-0.2C200.5,98.9,200.6,98.8,200.7,98.9z
				 M200.7,101.8c0.2,0,0.3,0.1,0.3,0.3c0,0,0,0.1,0,0.1c0,0.1-0.1,0.1-0.2,0.1c-0.1,0-0.2,0-0.2-0.1c-0.1,0-0.1-0.1-0.1-0.2
				C200.4,101.8,200.6,101.8,200.7,101.8z M198.6,97.6c0-0.1,0.1-0.1,0.1-0.2c0-0.1,0-0.3,0-0.4c0-0.1,0.2-0.2,0.3-0.2
				c0.2,0,0.2,0.1,0.1,0.3c-0.1,0.1-0.1,0.2-0.1,0.3c0,0,0,0.1,0,0.2c0,0.2,0,0.5-0.2,0.5C198.4,98.1,198.5,97.9,198.6,97.6z
				 M198.6,98.8c0.1,0,0.3,0.1,0.2,0.2c0,0.1-0.2,0.2-0.3,0.2c-0.1,0-0.2-0.1-0.2-0.2C198.4,98.9,198.5,98.8,198.6,98.8z M198.4,100
				c0.1-0.1,0.1-0.1,0.3-0.1c0.1,0.1,0,0.1,0,0.2c0,0,0,0,0,0c0,0.1-0.1,0.1-0.2,0.1c-0.1,0-0.1-0.1-0.1-0.1
				C198.3,100.1,198.4,100,198.4,100z M198.4,102.3c0.1,0,0.2,0,0.2,0.1c0.4,0.7,0.4,1.1-0.2,1.9c-0.1-0.7,0-1.2-0.1-1.8
				C198.2,102.4,198.3,102.3,198.4,102.3z M198.3,105c0-0.2,0.1-0.3,0-0.5c-0.1-0.1,0.1-0.2,0.2-0.2c0.1,0,0.2,0,0.3,0.2
				c0.1,0.4-0.1,0.7-0.1,1.1c0,0.1-0.1,0.1-0.2,0.1c-0.1,0-0.1-0.1-0.2-0.1C198.3,105.4,198.5,105.2,198.3,105z M197.2,124.3
				c0.2,0.1,0.5,0.1,0.4,0.4c0,0.1-0.2,0.2-0.3,0.1C197,124.7,197.1,124.5,197.2,124.3z M195.5,98.8c0.1,0,0.1,0.1,0.1,0.2
				c0,0.1-0.1,0.2-0.2,0.2c-0.1,0-0.1-0.1-0.1-0.2C195.3,98.9,195.4,98.8,195.5,98.8z M195.4,99.8C195.4,99.8,195.5,99.8,195.4,99.8
				c0.1,0,0.2,0.1,0.2,0.2c0,0.1,0,0.1-0.1,0.2c0,0.1-0.1,0.1-0.2,0.1c-0.1,0-0.1-0.1-0.1-0.2C195.3,100,195.3,99.8,195.4,99.8z
				 M195.4,101.8c0.1,0,0.1,0.1,0.2,0.1c0,0.1,0,0.2-0.1,0.2c0,0-0.1,0-0.1,0c0,0-0.1,0-0.1,0c0,0-0.1,0-0.1-0.1
				C195.2,101.9,195.3,101.9,195.4,101.8z M194.7,97.2c-0.1,0-0.2,0-0.2-0.2c0-0.1,0.1-0.1,0.2-0.1c0.1,0,0.2,0,0.2,0.1
				C194.9,97.1,194.7,97.2,194.7,97.2z M195.3,104.3c0-0.3,0-0.6-0.1-0.9c0-0.2,0.1-0.3,0.4-0.4c0,0.4-0.2,0.9-0.1,1.3
				c0,0.1,0,0.1,0,0.2c0,0.5,0.3,1-0.1,1.5c-0.4-0.4-0.2-0.9-0.2-1.4C195.2,104.5,195.2,104.4,195.3,104.3z M195.7,108.6
				c0,0.1,0,0.3-0.2,0.3c-0.2,0-0.1-0.2-0.1-0.3c0-0.4,0.1-0.8,0-1.2c-0.1-0.3,0.1-0.4,0.5-0.6C195.7,107.5,195.8,108,195.7,108.6z
				 M195.7,97.2c-0.1,0-0.2,0-0.2-0.1c0-0.2,0.1-0.2,0.3-0.2c0.1,0,0.2,0,0.2,0.1C196,97.1,195.9,97.2,195.7,97.2z M196.2,103.5
				c0.1-0.1,0.3,0,0.4,0c0.1,0.1,0.1,0.2,0,0.3c-0.1,0.1-0.1,0.3-0.2,0.5c-0.1-0.2-0.2-0.4-0.3-0.5
				C196.1,103.7,196.1,103.6,196.2,103.5z M196.7,107.9c0,0.1-0.1,0.1-0.2,0c-0.1-0.1-0.1-0.2,0-0.3c0,0,0.1-0.1,0.1-0.1
				c0,0,0.1,0.1,0.1,0.1C196.7,107.7,196.7,107.8,196.7,107.9z M196.6,107.1c0,0.1-0.1,0.2-0.1,0.3c-0.1-0.1-0.2-0.2-0.2-0.4
				c0-0.2,0-0.5,0.2-0.6c0,0,0.1,0,0.1,0C196.9,106.7,196.6,106.9,196.6,107.1z M196.5,99.2c-0.1,0-0.2-0.1-0.2-0.2
				c0-0.1,0-0.3,0.2-0.3c0.2,0,0.2,0.1,0.2,0.2C196.8,99.1,196.7,99.1,196.5,99.2z M196.7,97.3c-0.1,0-0.2-0.1-0.2-0.3
				c0.1-0.2,0.2-0.3,0.4-0.3c0.1,0,0.2,0.1,0.1,0.2C197,97.1,196.9,97.3,196.7,97.3z M197.2,126.5c0,0.1-0.1,0.1-0.2,0.1
				c-0.2-0.1-0.1-0.2-0.1-0.3c0-0.1,0.1-0.2,0-0.2C197.3,126.3,197.2,126.4,197.2,126.5z M197,125.6c-0.1-0.1,0.1-0.2,0.2-0.2
				c0.1,0,0.2,0,0.2,0.1c0,0.1,0,0.1-0.1,0.1C197.2,125.7,197.1,125.7,197,125.6z M197.9,130.1c-0.1,0.2,0.1,0.6-0.3,0.6
				c-0.3,0-0.2-0.4-0.2-0.7c0-0.1,0-0.2,0.1-0.2c0-0.2,0.1-0.3,0.3-0.3c0.2,0,0.2,0.2,0.2,0.3C197.9,129.9,197.9,130,197.9,130.1z
				 M199.8,130.5c0,0.2-0.2,0.3-0.3,0.2c-0.2-0.1-0.1-0.2-0.1-0.4c0-0.1,0.1-0.3,0.3-0.3C199.8,130.1,199.8,130.3,199.8,130.5z
				 M200.4,112.7c0,0.1,0,0.2-0.2,0.2c-0.2,0-0.2-0.1-0.2-0.2c0-0.1,0-0.3,0-0.4c0.1-0.3,0.1-0.7,0.2-1c0-0.2,0.1-0.2,0.3-0.2
				c0.1,0,0.3,0.1,0.3,0.2c0,0.2,0,0.3,0,0.5C200.4,112.1,200.3,112.4,200.4,112.7z M200.2,114c-0.3-0.3-0.3-0.5-0.1-0.8
				c0,0,0.1,0,0.1,0C200.5,113.5,200.3,113.8,200.2,114z M199.9,118.1c0,0-0.1,0.1-0.1,0.1c0,0.1,0,0.1,0.1,0.2c0,0.1,0,0.2-0.1,0.2
				c-0.1,0-0.1-0.1-0.1-0.2c0-0.1,0-0.1,0-0.2c0-0.1-0.1-0.1-0.1-0.2c0-0.2-0.2-0.5,0.1-0.7c0,0,0.1,0,0.1,0
				C200,117.6,200,117.8,199.9,118.1z M199.8,119.6c0-0.2-0.2-0.4-0.1-0.6c0.2,0.2,0.5,0.1,0.5,0.5c0,0.2,0,0.4-0.2,0.4
				C199.8,119.9,199.8,119.8,199.8,119.6z M200.1,127.1c0-0.1,0.1-0.2,0.2-0.2c0.1,0,0.2,0.1,0.2,0.2c0,0.2-0.1,0.2-0.3,0.2
				C200.1,127.3,200.1,127.2,200.1,127.1z M200.4,128.1c0.2-0.1,0.4,0.1,0.4,0.4c0,0.2,0,0.4-0.3,0.5c-0.1-0.2-0.1-0.3-0.1-0.5
				C200.3,128.4,200.2,128.2,200.4,128.1z M200.6,130.5c-0.2,0-0.3-0.1-0.3-0.3c0-0.1,0.1-0.2,0.2-0.3c0.2,0,0.3,0.2,0.3,0.4
				C200.8,130.5,200.7,130.5,200.6,130.5z M201,110.3c-0.4,0.2-0.5,0.2-0.8,0c-0.1,0-0.1,0-0.2,0c-0.2,0.2-0.3,0.5-0.3,0.8
				c-0.1,0.6-0.1,0.6-0.7,0.8c0.4,0.2,0.6,0.4,0.5,0.9c0,0.3-0.1,0.5-0.1,0.8c-0.3-0.2-0.1-0.5-0.2-0.7c-0.3,0-0.1,0.4-0.3,0.4
				c0.1,0.5-0.1,1-0.1,1.5c0,0.3-0.1,0.4-0.4,0.3c-0.2,0-0.4,0-0.6-0.1c-0.3-0.1-0.5-0.2,0-0.3c0.2-0.1,0.1-0.3,0.1-0.4
				c-0.4-0.6-0.2-1.3-0.3-1.9c0-0.1,0-0.3,0-0.4c0.1-0.4,0-0.9-0.2-1.3c0,0,0,0,0,0c-0.1-0.2-0.2-0.4,0-0.6c0.9-0.2,1.8-0.1,2.7-0.1
				c0.5,0.1,0.8-0.2,1.3-0.2c0.2,0,0.3-0.1,0.5-0.1c0.7,0,0.7,0,0.6,0.7c0,0.4,0.1,0.8,0,1.1c0.3,0.3-0.1,0.5-0.1,0.8
				c0,0.1,0,0.1-0.1,0c0-0.3-0.4-0.5,0-0.8c-0.2-0.3-0.3-0.5-0.2-0.8c0.1-0.1,0.1-0.3,0-0.4c-0.2-0.1-0.2,0.1-0.3,0.2
				c-0.3,0.2-0.4,0.1-0.4-0.2C201.1,110.3,201.1,110.3,201,110.3z M201.2,116.6c0.1-0.9-0.2-1.8,0.3-2.6c0,0,0.1,0,0.2,0
				c0.1,0.8-0.2,1.7,0.1,2.5c0,0.2-0.1,0.4-0.3,0.4C201.3,116.9,201.2,116.8,201.2,116.6z M201.5,117.5c0.1-0.1,0.2-0.2,0.3-0.1
				c0.3,0.2,0.1,0.4,0,0.7C201.4,118,201.3,117.8,201.5,117.5z M202.3,122.9c0-0.2,0.1-0.4,0.3-0.4c0.1,0,0.3,0,0.3,0.1
				c0.1,0.2-0.1,0.2-0.2,0.2c-0.2,0.1,0,0.2,0,0.3c0.2,0.8,0,1.5-0.1,2.3c0,0.2-0.1,0.3-0.2,0.2c-0.2,0-0.4,0.1-0.6-0.1
				C202.1,124.7,202.1,123.8,202.3,122.9z M201.9,126.7c0-0.2,0.1-0.4,0.3-0.5c0.3-0.1,0.4,0.1,0.4,0.4c0,0.2,0.1,0.4,0.1,0.6
				c0,0.2,0.2,0.4-0.1,0.4c-0.3,0.1-0.5,0-0.6-0.3C201.9,127.1,202,126.8,201.9,126.7z M202.1,128.6c0-0.1,0-0.2-0.1-0.4
				c0-0.2,0.1-0.4,0.3-0.5c0.2,0,0.4,0.1,0.4,0.4c0,0.2,0,0.3,0,0.5c0,0.2,0.1,0.6-0.3,0.6C202.2,129.2,202,129,202.1,128.6z
				 M202.2,130.1c-0.1-0.4,0-0.6,0.4-0.6c0.3,0,0.4,0.2,0.3,0.5c0,0,0,0.1,0,0.2c0,0.3,0.2,0.6-0.3,0.6c-0.4,0-0.4-0.3-0.4-0.6
				C202.2,130.2,202.2,130.1,202.2,130.1z M202.3,132.1c0-0.1,0-0.3,0-0.4c0-0.2-0.1-0.3,0-0.4c0.1-0.2,0.3-0.3,0.5-0.2
				c0.1,0,0.4,1,0.3,1.1c-0.1,0.1-0.2,0.3-0.4,0.3C202.5,132.4,202.4,132.3,202.3,132.1z M202.5,133.6c0-0.1,0-0.1,0.1-0.2
				c0-0.1-0.1-0.3-0.1-0.4c0.1-0.2,0.2-0.3,0.4-0.3c0.2,0,0.3,0.1,0.3,0.3c0,0.2,0,0.4,0,0.6c0,0.2,0.1,0.5-0.3,0.4
				C202.6,134,202.5,133.8,202.5,133.6z M203.2,135.6c-0.1,0.1-0.3,0-0.4,0l0,0l0-0.1c-0.2-0.8-0.2-0.8,0.3-1.3
				c0.2,0.3,0.1,0.7,0.1,1c0,0,0.1,0.1,0.1,0.1C203.3,135.4,203.3,135.5,203.2,135.6z M206.4,111.2c0,0.1,0,0.2-0.1,0.2
				c-0.1,0-0.2-0.1-0.2-0.2c0-0.1,0-0.2,0.2-0.2C206.4,111,206.4,111.1,206.4,111.2z M206.1,105c0,0,0,0.1,0,0.2
				c-0.1,0-0.2-0.1-0.2-0.1c0-0.2-0.2-0.4,0-0.4C206.2,104.5,206.1,104.8,206.1,105z M206,100.1c0-0.1,0-0.2,0.1-0.1
				c0.1,0.1,0.1,0.1,0.1,0.2c0,0.1-0.1,0.1-0.2,0.1C206,100.3,206,100.2,206,100.1z M205.9,105.7c0.1-0.1,0.1-0.1,0.2,0
				c0.1,0.2,0.2,0.4,0,0.6c0,0-0.1-0.1-0.1-0.1C205.9,106,205.7,105.8,205.9,105.7z M206.1,99c0.1,0,0.1,0.1,0.1,0.2
				c0,0.2-0.1,0.3-0.3,0.3c-0.1,0-0.2-0.1-0.2-0.2C205.8,99,205.9,98.9,206.1,99z M205.9,103.5c0.1,0,0.1,0.1,0.1,0.2
				c0,0.1-0.1,0.2-0.2,0.1c-0.1,0-0.1-0.1-0.1-0.2C205.7,103.5,205.7,103.5,205.9,103.5z M205.8,122.6c0,0.3-0.5,0.2-0.4,0.5
				c0,0.2,0.1,0.4,0.3,0.5c0.1,0.1,0,0.2,0,0.4c-0.1,0.1-0.2,0.1-0.3,0.1c-0.3-0.4-0.1-0.9-0.1-1.3
				C205.3,122.5,205.6,122.4,205.8,122.6z M203.7,100.2c-0.1,0-0.1-0.1-0.1-0.2c0-0.1,0.1-0.2,0.2-0.1c0,0,0.1,0.1,0,0.1
				C203.9,100.1,203.9,100.2,203.7,100.2z M204.3,113.7c-0.2-0.3-0.2-0.5,0.2-0.7c0,0-0.2-0.1-0.3-0.1c-0.3-0.6-0.3-0.7,0.2-0.7
				c0.1,0,0.4-0.1,0.4,0.1c0,0.2,0,0.4-0.2,0.4c0.2,0,0.3,0.2,0.3,0.4c0,0.9,0.1,1.8,0.2,2.7c0,0.2,0.1,0.5-0.1,0.7
				c-0.1,0.1,0,0.2,0.1,0.3c0.2,0.1,0.2,0.3,0,0.5c-0.2,0.2-0.4,0.2-0.6,0.1c-0.2-0.1-0.1-0.3-0.1-0.4c0.1-0.6-0.2-1.1-0.1-1.7
				C204.3,114.9,204,114.3,204.3,113.7z M204.5,119c0.1,0.3,0.2,0.5,0.2,0.7c0,0.1,0,0.2-0.1,0.2c-0.1,0-0.2,0-0.3-0.1
				C204.2,119.6,204.2,119.3,204.5,119z M204.4,132.3c-0.1-0.2,0.1-0.5-0.1-0.7c0-0.2,0-0.3,0.2-0.4c0.2-0.1,0.3-0.1,0.4,0.1
				c0,0.3,0,0.7,0.1,1c0,0.1,0,0.3-0.2,0.3C204.6,132.5,204.4,132.5,204.4,132.3z M205.1,137.2c-0.1,0-0.2,0-0.2-0.1
				c0-0.1,0-0.1,0.1-0.2c0.1,0,0.2,0,0.3,0.1C205.3,137.1,205.2,137.2,205.1,137.2z M205.4,127.6c-0.1,0-0.1,0-0.2-0.1
				c0-0.1,0-0.1,0.1-0.2c0.1,0,0.2,0,0.2,0.2C205.5,127.6,205.4,127.6,205.4,127.6z M205.5,132.3c0-0.1,0.1-0.1,0.2-0.1
				c0.1,0,0.1,0,0.1,0.1c0,0.1-0.1,0.1-0.2,0.1C205.6,132.4,205.5,132.4,205.5,132.3z M205.7,134.3c0.2,0.5,0.2,0.5,0,1.1
				C205.7,135,205.6,134.7,205.7,134.3z M206,137.3c-0.1,0-0.3-0.1-0.2-0.2c0-0.1,0.2-0.1,0.3-0.1c0.1,0,0.2,0,0.2,0.2
				C206.2,137.2,206.1,137.3,206,137.3z M206.7,113c-0.1,0.4,0,0.8-0.3,1.1c-0.2,0.3,0.2,0.4,0.2,0.6c0,0.1-0.1,0.3-0.2,0.3
				c-0.2,0-0.2-0.1-0.2-0.3c0.3-0.2,0-0.5,0-0.8c0-0.3,0-0.6,0.1-0.9c0-0.2,0-0.5,0.3-0.4C206.8,112.6,206.7,112.8,206.7,113z
				 M208.5,110.3c-0.1,0.3-0.1,0.5-0.3,0.8c0-0.3-0.3-0.6-0.1-0.9c0.1-0.1,0.2-0.2,0.3-0.2C208.5,110.1,208.6,110.2,208.5,110.3z
				 M208.3,115.7c0,0.1-0.1,0.1-0.2,0.1c-0.1,0-0.1-0.1-0.1-0.2c0,0,0.1-0.1,0.1-0.1C208.3,115.5,208.3,115.5,208.3,115.7z
				 M208.5,108.6c0,0.1-0.1,0.1-0.1,0.1c-0.1,0-0.1,0-0.1-0.1c0,0,0.1-0.1,0.1-0.1C208.4,108.5,208.5,108.6,208.5,108.6z
				 M208.1,103.5c0,0.1,0.1,0.2,0.1,0.3c0.1,0.2,0,0.3-0.2,0.3c-0.1,0-0.2-0.2-0.1-0.3C208,103.7,208,103.6,208.1,103.5z
				 M207.7,102.7c0-0.1,0-0.3,0.2-0.3c0.1,0,0.1,0.1,0.1,0.2c0,0.1,0,0.2-0.1,0.2C207.7,103,207.7,102.8,207.7,102.7z M208,114.2
				c-0.1,0-0.1-0.1-0.1-0.2c0-0.1,0-0.4,0.2-0.4c0.1,0,0.2,0.1,0.1,0.2C208.2,113.9,208.2,114.2,208,114.2z M208.2,129.2
				c-0.2-0.2-0.2-0.4-0.2-0.5c0-0.3,0-0.4,0-0.5c0-0.1,0.1-0.3,0.2-0.3c0.1,0,0.2,0.1,0.2,0.2c-0.1,0.3,0,0.6,0.1,0.8
				c0,0.1,0,0.2-0.1,0.2C208.4,129.3,208.3,129.3,208.2,129.2z M208.5,130.9c-0.1,0-0.1-0.1-0.1-0.2c0,0,0.1,0,0.1-0.1
				c0.1,0,0.1,0.1,0.1,0.2C208.6,130.9,208.5,130.9,208.5,130.9z M210.5,89.9c-0.1,0.1,0,0.2,0,0.3c0.2,0.3,0.1,0.7,0.1,1
				c0,0.2-0.2,0.2-0.3,0.1c-0.2-0.1-0.2-0.3-0.1-0.5c0-0.1,0-0.2,0-0.3c0-0.1,0-0.1-0.1-0.2v-0.2c0,0,0-0.1,0.1-0.1
				c0.3-0.1,0.3-0.2,0.2-0.2c-0.1,0-0.2-0.1-0.3-0.2c0-0.1-0.1-0.1-0.1-0.2c0-0.4-0.1-0.8,0-1.2c0-0.1,0-0.1,0.1-0.1
				c0.1,0,0.2,0,0.2,0c0.2,0.1,0.3,0.2,0.3,0.4C210.5,89.1,210.8,89.5,210.5,89.9z M210.3,138.6c-0.1-0.1-0.2-0.2-0.3-0.3
				c-0.1-0.1-0.1-0.2,0-0.3c0-0.1,0.1-0.2,0.2-0.3C210.3,138,210.2,138.2,210.3,138.6z M210,139.3c0,0,0.1-0.1,0.2,0
				c0.1,0,0.2,0.1,0.2,0.2c0,0.1-0.1,0.2-0.2,0.2c-0.1,0-0.1,0-0.2-0.1c0,0-0.1-0.1-0.1-0.2C210,139.4,210,139.3,210,139.3z
				 M210.2,129.2c0-0.5-0.3-0.7,0-1.2C210.4,128.4,210.6,128.7,210.2,129.2z M210.1,111.3c0,0,0,0.1-0.1,0.1c0,0-0.1,0.1-0.2,0.1
				c-0.1,0-0.2-0.1-0.2-0.2c0.1-0.3,0.1-0.7,0.2-1c0-0.1,0.1-0.1,0.1-0.1c0.1,0,0.1,0,0.2,0C210,110.5,210.2,110.9,210.1,111.3z
				 M210.1,112.3c0,0,0,0.1-0.1,0.1c0,0-0.1,0.1-0.2,0c-0.1,0-0.1-0.2-0.1-0.3c0-0.1,0.1-0.2,0.2-0.2c0,0,0,0,0,0
				C210.1,112.2,210.1,112.2,210.1,112.3z M209.7,72.4c0.1,0,0.2,0.1,0.2,0.2c0,0.1-0.1,0.1-0.1,0.1c-0.1,0-0.1,0-0.2-0.2
				C209.6,72.5,209.7,72.4,209.7,72.4z M209.4,84.9c0-0.1,0.3-0.1,0.6-0.1c0.1,0,0.2,0.1,0.3,0.2c0.1,0.2,0.2,0.4,0,0.6
				c0,0.6,0.1,1.2,0.1,1.7c0,0.2-0.1,0.4-0.4,0.4c0,0,0,0-0.1,0c-0.2,0-0.2-0.2-0.2-0.4c0.1-0.6-0.1-1.1-0.1-1.7
				C209.3,85.6,209.4,85.2,209.4,84.9z M209.6,113.8c0.1-0.2,0.2-0.2,0.3-0.2c0,0,0,0,0.1,0c0.1,0,0.1,0.1,0.1,0.2
				c0,0-0.1,0.1-0.1,0.1c-0.1,0-0.2,0-0.3,0C209.7,114,209.6,113.9,209.6,113.8z M209.9,114.9c0-0.1,0-0.1,0.2-0.1c0,0,0,0,0,0
				c0.1,0,0.1,0.1,0.1,0.2c0,0,0,0.1-0.1,0.1c0,0-0.1,0-0.1,0C209.9,115.1,209.9,115,209.9,114.9z M209.9,140.2c0-0.1,0-0.2,0.1-0.2
				c0,0,0,0,0.1,0c0,0,0.1,0,0.1,0.1c-0.1,0.6,0.4,1.2-0.1,1.9c-0.1-0.2-0.1-0.5-0.1-0.7C210,140.9,210,140.5,209.9,140.2z
				 M210.3,142.8c-0.1,0-0.2,0-0.2-0.1c0-0.1,0.1-0.2,0.2-0.2c0.1,0,0.2,0.1,0.2,0.2C210.5,142.8,210.3,142.8,210.3,142.8z
				 M210.5,102.9c-0.1,0-0.1-0.1-0.2-0.1c0-0.1,0.1-0.2,0.1-0.4c0.1,0.1,0.2,0.2,0.2,0.3C210.7,102.9,210.6,102.9,210.5,102.9z
				 M200.1,171.6c-0.1,0.3,0.1,0.7-0.4,0.8c-0.3-0.3-0.4-0.6-0.3-0.9c0-0.2,0.2-0.4,0.4-0.3C200.1,171.2,200.2,171.5,200.1,171.6z
				 M202.1,171.8c-0.1,0-0.1-0.2-0.1-0.3c0-0.1,0.1-0.2,0.2-0.2c0.1,0,0.2,0.1,0.1,0.2C202.3,171.7,202.2,171.8,202.1,171.8z
				 M204.4,179.6c0.3,0.4,0.3,0.7,0.1,0.9C204.3,180.3,204.4,180,204.4,179.6z M204.4,179c0-0.1,0-0.1,0.1-0.2c0.1,0,0.1,0,0.2,0.1
				c0,0,0,0.1-0.1,0.1C204.5,179.1,204.4,179.1,204.4,179z M202.6,167.7c-0.1-0.4,0-0.8,0.1-1.3
				C202.9,166.9,202.8,167.3,202.6,167.7z M203,165.6c0,0.1-0.1,0.2-0.2,0.1c-0.1-0.1-0.1-0.2-0.1-0.3c0-0.1,0.1-0.2,0.2-0.2
				C203,165.3,203,165.5,203,165.6z M203,163.1c0-0.1,0-0.2,0.2-0.2c0.1,0,0.1,0.1,0.1,0.2c0,0.1,0,0.2-0.2,0.2
				C203,163.2,203,163.2,203,163.1z M203.5,179.5c-0.1,0.3-0.2,0.5-0.2,0.8c-0.1-0.3-0.1-0.5-0.1-0.8c0-0.1,0-0.3,0.2-0.3
				C203.5,179.2,203.5,179.4,203.5,179.5z M204.5,182.1c-0.2,0-0.2-0.1-0.2-0.2c0-0.1,0-0.2,0.1-0.3c0,0,0.1,0,0.1,0
				c0,0,0.1,0,0.1,0c0,0,0,0.1,0.1,0.2C204.7,181.9,204.7,182.1,204.5,182.1z M204.7,169.8C204.6,169.8,204.6,169.8,204.7,169.8
				c-0.3-0.3-0.3-0.6-0.1-0.8c0,0,0.2,0,0.2,0C204.9,169.3,204.9,169.6,204.7,169.8z M205.1,181.9c0,0,0,0-0.1,0.1
				c0-0.1-0.1-0.1-0.1-0.1c0-0.1-0.1-0.2,0-0.3c0,0,0-0.1,0.1-0.1c0,0,0.1,0,0.1,0c0,0,0,0,0,0.1
				C205.2,181.7,205.1,181.8,205.1,181.9z M205.1,180.6c-0.2-0.2-0.2-0.5,0-0.8C205.3,180.2,205.3,180.2,205.1,180.6z M205.1,179.1
				c-0.1,0-0.2-0.1-0.2-0.2c0-0.1,0.1-0.2,0.1-0.2c0.1,0,0.1,0.1,0.1,0.2C205.3,179,205.2,179.1,205.1,179.1z M205.4,172.3
				c0,0,0.1,0,0.1,0c0,0,0.1,0.1,0.1,0.1c-0.1,0.4,0.2,0.8-0.3,1.2C205,173.1,205.3,172.7,205.4,172.3z M205.7,182
				c-0.2,0-0.2-0.2-0.2-0.3c0,0,0-0.1,0-0.1c0-0.1,0.1-0.1,0.2-0.1c0.1,0,0.1,0.1,0.1,0.1c0,0,0,0.1,0,0.1
				C205.9,181.8,205.8,182,205.7,182z M205.8,171.1c0,0.1,0,0.1,0,0.2c0,0.2,0.1,0.4-0.2,0.6c0,0-0.1,0-0.1,0
				c-0.2-0.2,0.1-0.4,0-0.6c-0.2-0.8,0.2-1.5,0.3-2.3C206.1,169.6,205.9,170.3,205.8,171.1z M206.8,171.2c0,0.1-0.2,0.1-0.2,0
				c-0.1-0.4-0.1-0.9,0.2-1.3c-0.2-0.4,0-0.8,0.2-1.2c0.1,0.4,0.4,0.8-0.1,1.2C207.1,170.3,207,170.8,206.8,171.2z M207.1,158.9
				c-0.1,0-0.1-0.1-0.1-0.2c0-0.1,0-0.1,0.1-0.2c0.1,0,0.1,0.1,0.2,0.2C207.2,158.9,207.2,158.9,207.1,158.9z M207.2,158.1
				c-0.1,0-0.2-0.2-0.2-0.3c0-0.1,0.1-0.2,0.3-0.2c0.1,0,0.2,0.1,0.2,0.2C207.4,158,207.3,158.1,207.2,158.1z M207.7,152.1
				c-0.1,0-0.2-0.2-0.2-0.3c0-0.1,0-0.2,0.1-0.2c0.1,0,0.2,0.2,0.2,0.3C207.9,152,207.8,152.1,207.7,152.1z M208.7,182.2
				c-0.1-0.2-0.1-0.4,0-0.6C208.9,181.9,208.9,182,208.7,182.2z M208.9,180.2c0,0.1,0,0.3-0.2,0.3c-0.1,0-0.2-0.2-0.1-0.3
				c0-0.1,0-0.3,0.2-0.4C208.9,179.9,208.9,180.1,208.9,180.2z M208.9,179.5c-0.1,0.1-0.2,0.1-0.3,0c-0.2-0.2,0-0.4,0.2-0.6
				C208.9,179.2,209.1,179.3,208.9,179.5z M210.6,179.9c0.2,0.4,0.1,0.7,0.1,1C210.4,180.6,210.3,180.3,210.6,179.9z M210.6,182.3
				c-0.2-0.2-0.2-0.4-0.1-0.6c0,0,0.1,0,0.1,0C210.8,181.8,210.7,182,210.6,182.3z M217.1,172.8c0.3,0.3,0.3,0.3,0.2,1
				C217,173.3,217,173.3,217.1,172.8z M214.3,179.3c0.4,1,0.2,2,0.1,3.1C214,181.3,214,179.9,214.3,179.3z M213.7,179.4
				c0,0.3,0.1,0.6,0,0.9C213.6,179.9,213.6,179.9,213.7,179.4z M213.6,181.2c0,0.3,0.4,0.5,0.1,0.8c0,0-0.1,0-0.1,0
				C213.4,181.7,213.6,181.4,213.6,181.2z M215.5,134.9C215.5,134.9,215.6,135,215.5,134.9c0.1,0.2,0,0.2-0.1,0.2
				c0,0-0.1-0.1-0.1-0.1C215.4,134.9,215.5,134.9,215.5,134.9z M213.7,104.9c0.2,0,0.4,0.1,0.4,0.2c0.1,0.2-0.1,0.1-0.2,0.2
				c-0.1,0-0.3,0-0.3-0.2C213.6,105,213.7,104.9,213.7,104.9z M212.8,100.5c0.1,0,0.2,0.1,0.2,0.2c0,0-0.1,0.1-0.2,0.1
				c-0.1,0-0.2-0.1-0.2-0.2C212.7,100.6,212.8,100.6,212.8,100.5z M212.5,112.2c0-0.1,0.1-0.1,0.2-0.1c0,0,0,0.1,0.1,0.1
				c0,0.1-0.1,0.1-0.2,0.1C212.5,112.3,212.5,112.3,212.5,112.2z M212.7,112.9c0.1,0,0.1,0,0.2,0.1c0,0.1-0.1,0.2-0.2,0.2
				c-0.1,0-0.2-0.1-0.2-0.2C212.5,112.9,212.6,112.9,212.7,112.9z M212.4,114.5c0-0.1,0.1-0.1,0.2,0c0.2,0.2,0.3,0.5,0.1,0.7
				c-0.1,0-0.1-0.1-0.1-0.1C212.5,115,212.3,114.8,212.4,114.5z M212.4,138.3c0.1,0,0.1,0.1,0.1,0.2c0,0.1,0,0.2-0.2,0.2
				c-0.1,0-0.1-0.1-0.1-0.2C212.2,138.4,212.3,138.3,212.4,138.3z M212.4,140.6c-0.1-0.3-0.2-0.5,0-0.7
				C212.6,140.1,212.5,140.3,212.4,140.6z M211.2,67.1c0.1,0,0.2,0,0.2,0c0.1,0.1,0.1,0.2,0,0.4c0,0.1-0.1,0.2-0.1,0.3
				c-0.2-0.1-0.3-0.2-0.3-0.4C211,67.3,211.1,67.2,211.2,67.1z M211.1,69.6c0.1,0,0.3,0,0.3,0.1c0,0.3,0.1,0.6,0.2,0.8
				c0,0.2-0.1,0.2-0.1,0.2c-0.1,0-0.2,0-0.2-0.1c-0.2-0.3-0.2-0.6-0.3-1C211,69.7,211.1,69.6,211.1,69.6z M210.8,169.5
				c0-0.1,0-0.2,0.2-0.3c0.1,0,0.2,0,0.2,0.2c0,0.1,0,0.2-0.1,0.2C211,169.6,210.9,169.6,210.8,169.5z M211.1,179.6
				c-0.1,0-0.1-0.1-0.1-0.2c0-0.1,0.1-0.1,0.2-0.1c0.1,0,0.1,0.1,0.1,0.2C211.2,179.5,211.2,179.6,211.1,179.6z M211.9,161.8
				c0.3,0,0.2,0.2,0.3,0.4c0,0.1,0,0.1,0.1,0.3c-0.2,0.3-0.1,0.6,0,0.9c0,0.1,0,0.3-0.2,0.2c-0.1,0-0.2-0.1-0.2-0.2
				c0.1-0.4,0-0.7-0.1-1.1C211.6,162.1,211.6,161.9,211.9,161.8z M211.7,161c0,0,0.1-0.1,0.1-0.1c0.1,0,0.1,0,0.1,0.2
				c0,0.1-0.1,0.1-0.2,0.1C211.7,161.1,211.7,161,211.7,161z M212,175.3c-0.3-0.3-0.1-0.6-0.1-0.9C212.1,174.7,212,175,212,175.3z
				 M211.8,173.9c-0.1-0.6,0-1.1,0-1.6C212.2,172.6,212.2,172.8,211.8,173.9z M212.2,169.7c-0.1,0-0.1-0.1-0.1-0.2
				c0-0.1,0-0.2,0.1-0.2c0.2,0,0.1,0.1,0.1,0.2C212.3,169.6,212.3,169.7,212.2,169.7z M212.3,156.4c0,0.1-0.1,0.2-0.2,0.4
				c0-0.3-0.1-0.4,0-0.5c0-0.2-0.1-0.4,0.2-0.4C212.4,155.9,212.3,156.2,212.3,156.4z M212.7,150.6c0,0.1-0.1,0.2-0.2,0.1
				c-0.1-0.1-0.1-0.3-0.1-0.4c0-0.1,0.1-0.2,0.3-0.1C212.9,150.3,212.8,150.4,212.7,150.6z M211.1,148.2c0.6-0.2,1.2-0.2,1.8,0.1
				C212.3,148.3,211.7,148.4,211.1,148.2z M212.9,103.2c-0.1,0-0.1-0.1-0.1-0.1c0-0.1,0-0.1,0.1-0.1c0.1,0,0.1,0.1,0.1,0.1
				C213,103.2,213,103.2,212.9,103.2z M213.3,106.9c0-0.1,0.1-0.2,0.2-0.2c0.2,0,0.2,0.1,0.2,0.3c0,0.1,0,0.1-0.1,0.1
				C213.4,107.1,213.3,107.1,213.3,106.9z M213.5,149.5c-0.1,0-0.1,0-0.1-0.1c0-0.1,0-0.1,0.1-0.1c0.1,0,0.1,0,0.1,0.1
				C213.6,149.4,213.6,149.5,213.5,149.5z M214,137.1c-0.1,0-0.1,0-0.2-0.1c0-0.1,0-0.1,0.2-0.2c0,0,0.1,0,0.1,0.1
				C214.1,137,214,137.1,214,137.1z M213.9,135.4c-0.2,0-0.2-0.1-0.2-0.3c0-0.1,0.1-0.2,0.2-0.2c0.1,0,0.2,0.1,0.2,0.3
				C214.2,135.3,214,135.4,213.9,135.4z M214,125c-0.1,0-0.2-0.1-0.3-0.2c0-0.1,0-0.2,0.1-0.3c0.3,0,0.3,0.2,0.3,0.3
				C214.2,125,214.1,125,214,125z M214,99c0-0.1,0.1-0.1,0.2-0.2c0.1-0.2,0-0.4-0.2-0.5c-0.1-0.1-0.1-0.2,0-0.3
				c0.1-0.1,0.2,0,0.2,0.1c0.1,0.2,0.1,0.5,0.1,0.7c0.1,0.2,0.2,0.4,0,0.5C214.2,99.4,213.9,99.1,214,99z M214.5,114.2
				c0,0.1,0,0.1-0.1,0.1c-0.1,0-0.1-0.1-0.1-0.2c0,0,0.1-0.1,0.1-0.1C214.6,114,214.5,114.1,214.5,114.2z M214.6,104
				c-0.1,0-0.2-0.1-0.2-0.2c0-0.1,0.1-0.2,0.2-0.2c0.1,0,0.1,0.1,0.1,0.3C214.7,103.8,214.7,104,214.6,104z M214.7,102.9
				c-0.1,0-0.1,0-0.1-0.1c0-0.1,0-0.1,0.1-0.2c0.1,0,0.1,0,0.1,0.1C214.8,102.8,214.7,102.8,214.7,102.9z M215.1,92.3
				c0,0.1-0.1,0.2-0.2,0.4c0-0.3-0.1-0.4-0.1-0.5c0-0.1,0-0.2,0.1-0.2C215.1,92.1,215.1,92.2,215.1,92.3z M215.6,146.6
				c0,0.1-0.1,0.2-0.2,0.2c-0.2-0.1-0.2-0.2-0.2-0.4c0-0.1,0.1-0.2,0.3-0.2C215.7,146.3,215.7,146.4,215.6,146.6z M217.4,103.9
				c0-0.3,0-0.6,0.1-0.9c0-0.1,0.1-0.1,0.2-0.1c0.1,0,0.2,0.1,0.1,0.1c-0.2,0.4,0,0.8,0,1.2C217.6,104.2,217.4,104.1,217.4,103.9z
				 M218.8,97.3c0,0-0.1,0-0.1-0.1c0-0.1,0-0.1,0.1-0.1c0,0,0.1,0,0.1,0.1C218.9,97.2,218.9,97.2,218.8,97.3z M219.2,104.3
				c0,0.1,0,0.2-0.2,0.2c0-0.1-0.1-0.2-0.1-0.2c0.1-0.2,0.1-0.7,0.4-0.6C219.8,103.8,219.1,104,219.2,104.3z M225.3,77.8
				c0,0.6,0,1.1,0,1.8C225,78.7,225,78.3,225.3,77.8z M224.4,81.1c0,0.1-0.1,0.3-0.3,0.3c-0.2,0-0.3-0.2-0.2-0.4
				c0.1-0.4,0.1-0.8,0-1.2c0-0.1,0-0.2,0.2-0.2c0.1,0,0.2,0.1,0.2,0.2c0.1,0.3,0.2,0.6,0.2,0.9C224.5,80.8,224.5,81,224.4,81.1z
				 M225.2,83.5c0-0.8-0.3-1.5-0.3-2.2c0.3,0,0.4,0.1,0.4,0.2C225.4,81.8,225.3,83,225.2,83.5z M226.2,87.7
				c-0.1-0.8-0.3-1.6-0.1-2.5C226.4,86,226.2,86.8,226.2,87.7z M227.9,86.2c-0.2,0.1-0.3,0-0.3-0.1c0-0.9-0.1-1.7,0.1-2.6
				c0,0,0.1-0.1,0.2-0.2C227.9,84.3,227.9,85.3,227.9,86.2z M228.3,79.1c0,0.4,0,0.8,0,1.2c0,0.2,0,0.4-0.1,0.7
				C228.1,80.3,228.2,79.7,228.3,79.1z M228.2,84.2c0.1,0.1,0.1,0.2,0.2,0.3C228.3,84.4,228.2,84.3,228.2,84.2z"/>
		</g>
	</g>
	<g id="_x5B_Your_Text_Here_x5D_">
		<g>
			<rect x="118.4" y="186.2" fill="none" width="182.7" height="30.9"/>
			
				<text transform="matrix(1 0 0 1 122.8699 212.1459)" fill="#4C5B72" font-family="'BebasNeue'" font-size="37px" letter-spacing="3">Your Brand</text>
			<rect x="162.4" y="219.2" fill="none" width="100" height="13.1"/>
			<text transform="matrix(1 0 0 1 162.3572 223.4916)"><tspan x="0" y="0" fill="#808793" font-family="'Lato-Black'" font-size="6.0015px" letter-spacing="13">TAGLIN</tspan><tspan x="97" y="0" fill="#808793" font-family="'Lato-Black'" font-size="6.0015px" letter-spacing="3">E</tspan></text>
		</g>
	</g>
</g>
<g id="Logo_3">
	<g id="Background_2_">
	</g>
	<g id="Graphic_Elements_2_">
	</g>
	<g id="_x5B_Your_Text_Here_x5D__1_">
	</g>
</g>
<g id="Logo_2">
	<g id="Background_1_">
	</g>
	<g id="Graphic_Elements_1_">
	</g>
	<g id="_x5B_Your_Text_Here_x5D__2_">
	</g>
</g>
<g id="Logo_1">
	<g id="Background">
	</g>
	<g id="Graphic_Elements">
	</g>
	<g id="_x5B_Your_Text_Here_x5D__3_">
	</g>
</g>
</svg>
